<svg width="49" height="59" viewBox="0 0 49 59" fill="none" xmlns="http://www.w3.org/2000/svg">
<path d="M28.32 0C31.84 0 34.72 0.533334 36.96 1.6C39.2533 2.61334 41.28 3.81334 43.04 5.2C44.1067 6 44.9067 6.10667 45.44 5.52C46.0267 4.88 46.4267 3.41334 46.64 1.12001H48.48C48.3733 3.2 48.2933 5.73334 48.24 8.72C48.1867 11.6533 48.16 15.5733 48.16 20.48H46.32C46.0533 18.0267 45.7067 15.9467 45.28 14.24C44.8533 12.48 44.2667 10.9333 43.52 9.6C42.7733 8.26667 41.7067 7.06667 40.32 6C38.9867 4.66667 37.44 3.68 35.68 3.04C33.92 2.4 32.08 2.08 30.16 2.08C27.28 2.08 24.8267 2.85333 22.8 4.4C20.7733 5.89333 19.12 7.94667 17.84 10.56C16.6133 13.1733 15.7067 16.1333 15.12 19.44C14.5333 22.6933 14.24 26.08 14.24 29.6C14.24 33.1733 14.5333 36.6133 15.12 39.92C15.76 43.1733 16.72 46.08 18 48.64C19.3333 51.2 21.04 53.2267 23.12 54.72C25.2 56.2133 27.6533 56.96 30.48 56.96C32.24 56.96 34 56.64 35.76 56C37.5733 55.3067 39.12 54.32 40.4 53.04C42.48 51.44 43.8933 49.4667 44.64 47.12C45.3867 44.72 45.9467 41.5467 46.32 37.6H48.16C48.16 42.6667 48.1867 46.7733 48.24 49.92C48.2933 53.0133 48.3733 55.6267 48.48 57.76H46.64C46.4267 55.4667 46.0533 54.0267 45.52 53.44C45.04 52.8533 44.2133 52.9333 43.04 53.68C41.0667 55.0667 38.96 56.2933 36.72 57.36C34.5333 58.3733 31.7067 58.88 28.24 58.88C22.5867 58.88 17.6267 57.7333 13.36 55.44C9.14667 53.1467 5.86667 49.84 3.52 45.52C1.17333 41.2 0 36 0 29.92C0 23.9467 1.2 18.72 3.6 14.24C6.05333 9.76 9.38667 6.26667 13.6 3.76C17.8667 1.25334 22.7733 0 28.32 0Z" fill="black"/>
</svg>
