<svg width="40" height="40" viewBox="0 0 40 40" fill="none" xmlns="http://www.w3.org/2000/svg">
<path d="M40 20C40 31.0457 31.0457 40 20 40C8.9543 40 0 31.0457 0 20C0 8.9543 8.9543 0 20 0C31.0457 0 40 8.9543 40 20Z" fill="#D9D9D9"/>
<path d="M21.6832 8C23.1353 8 24.3234 8.22645 25.2475 8.67935C26.1936 9.1096 27.0297 9.61911 27.7558 10.2079C28.1958 10.5476 28.5259 10.5928 28.7459 10.3437C28.9879 10.072 29.1529 9.44928 29.2409 8.47555H30C29.956 9.3587 29.923 10.4343 29.901 11.7024C29.879 12.9479 29.868 14.6123 29.868 16.6957H29.1089C28.9989 15.654 28.8559 14.7708 28.6799 14.0462C28.5038 13.2989 28.2618 12.6422 27.9538 12.0761C27.6458 11.51 27.2057 11.0005 26.6337 10.5476C26.0836 9.98143 25.4455 9.5625 24.7195 9.29076C23.9934 9.01902 23.2343 8.88315 22.4422 8.88315C21.2541 8.88315 20.242 9.2115 19.4059 9.86821C18.5699 10.5023 17.8878 11.3741 17.3597 12.4837C16.8537 13.5933 16.4796 14.8501 16.2376 16.2541C15.9956 17.6354 15.8746 19.0734 15.8746 20.5679C15.8746 22.0851 15.9956 23.5457 16.2376 24.9497C16.5016 26.3311 16.8977 27.5652 17.4257 28.6522C17.9758 29.7391 18.6799 30.5996 19.538 31.2337C20.396 31.8678 21.4081 32.1848 22.5743 32.1848C23.3003 32.1848 24.0264 32.0489 24.7525 31.7772C25.5005 31.4828 26.1386 31.0639 26.6667 30.5204C27.5248 29.841 28.1078 29.0032 28.4158 28.0068C28.7239 26.9878 28.9549 25.6404 29.1089 23.9647H29.868C29.868 26.1159 29.879 27.8596 29.901 29.1957C29.923 30.5091 29.956 31.6187 30 32.5245H29.2409C29.1529 31.5507 28.9989 30.9393 28.7789 30.6902C28.5809 30.4411 28.2398 30.4751 27.7558 30.7921C26.9417 31.3809 26.0726 31.9017 25.1485 32.3546C24.2464 32.7849 23.0803 33 21.6502 33C19.3179 33 17.2717 32.5131 15.5116 31.5394C13.7734 30.5657 12.4202 29.1617 11.4521 27.3274C10.484 25.4932 10 23.2853 10 20.7038C10 18.1676 10.495 15.9484 11.4851 14.0462C12.4972 12.144 13.8724 10.6608 15.6106 9.59647C17.3707 8.53216 19.3949 8 21.6832 8Z" fill="black"/>
</svg>
