<svg width="600" height="599" viewBox="0 0 600 599" fill="none" xmlns="http://www.w3.org/2000/svg">
<path d="M539.88 477.391H500.136V477.691H539.88V477.391Z" fill="#EBEBEB"/>
<path d="M397.464 480.65H387.036V480.95H397.464V480.65Z" fill="#EBEBEB"/>
<path d="M498.936 466.274H475.908V466.574H498.936V466.274Z" fill="#EBEBEB"/>
<path d="M114.78 468.286H62.952V468.586H114.78V468.286Z" fill="#EBEBEB"/>
<path d="M133.068 468.286H125.472V468.586H133.068V468.286Z" fill="#EBEBEB"/>
<path d="M270.18 473.342H157.764V473.642H270.18V473.342Z" fill="#EBEBEB"/>
<path d="M284.4 404.684H52.692C50.8768 404.681 49.1371 403.959 47.8547 402.677C46.5722 401.394 45.852 399.656 45.852 397.844V72.6707C45.8678 70.8689 46.595 69.1462 47.8757 67.8766C49.1564 66.607 50.8872 65.8931 52.692 65.89H284.4C286.217 65.89 287.96 66.6107 289.245 67.8936C290.53 69.1764 291.252 70.9164 291.252 72.7306V397.844C291.252 399.658 290.53 401.398 289.245 402.681C287.96 403.964 286.217 404.684 284.4 404.684ZM52.692 66.1296C50.9564 66.1328 49.2929 66.8233 48.0668 68.0497C46.8406 69.276 46.152 70.938 46.152 72.6707V397.844C46.152 399.577 46.8406 401.238 48.0668 402.465C49.2929 403.691 50.9564 404.382 52.692 404.385H284.4C286.137 404.382 287.801 403.692 289.029 402.466C290.258 401.24 290.949 399.578 290.952 397.844V72.6707C290.949 70.9369 290.258 69.275 289.029 68.049C287.801 66.8229 286.137 66.1328 284.4 66.1296H52.692Z" fill="#EBEBEB"/>
<path d="M543.972 404.684H312.252C310.436 404.681 308.695 403.96 307.41 402.677C306.126 401.395 305.403 399.657 305.4 397.844V72.6707C305.419 70.8678 306.149 69.1451 307.431 67.8758C308.714 66.6065 310.446 65.8931 312.252 65.89H543.972C545.775 65.8962 547.502 66.6115 548.781 67.8808C550.059 69.15 550.784 70.871 550.8 72.6707V397.844C550.8 399.654 550.081 401.39 548.802 402.672C547.522 403.955 545.785 404.678 543.972 404.684ZM312.252 66.1296C310.515 66.1328 308.851 66.8229 307.623 68.049C306.395 69.275 305.703 70.9369 305.7 72.6707V397.844C305.703 399.578 306.395 401.24 307.623 402.466C308.851 403.692 310.515 404.382 312.252 404.385H543.972C545.709 404.382 547.373 403.692 548.601 402.466C549.83 401.24 550.521 399.578 550.524 397.844V72.6707C550.521 70.9369 549.83 69.275 548.601 68.049C547.373 66.8229 545.709 66.1328 543.972 66.1296H312.252Z" fill="#EBEBEB"/>
<path d="M600 458.115H0V458.415H600V458.115Z" fill="#EBEBEB"/>
<path d="M146.832 377.765C148.032 379.251 149.232 381 148.848 382.857C148.578 383.873 147.934 384.75 147.044 385.312C146.153 385.874 145.083 386.08 144.048 385.888C143.025 385.66 142.076 385.177 141.291 384.483C140.506 383.79 139.911 382.909 139.56 381.922C139.092 380.724 138.912 379.407 138.444 378.197C137.1 374.686 133.644 372.542 130.38 370.649C130.176 374.243 132.24 377.693 134.688 380.401C137.136 383.108 140.04 385.421 142.152 388.392C144.264 391.363 145.476 395.34 144.024 398.682C143.925 398.967 143.751 399.219 143.52 399.413C143.158 399.626 142.728 399.69 142.32 399.593C138.504 399.078 135.9 395.496 134.22 392.034C132.54 388.571 131.16 384.714 128.064 382.45C129.432 387.038 133.104 390.56 135.06 394.921C136.281 397.748 136.759 400.839 136.448 403.902C136.138 406.965 135.048 409.898 133.284 412.423C133.158 412.65 132.986 412.848 132.78 413.005C132.573 413.161 132.336 413.274 132.084 413.334C131.34 413.406 130.8 412.651 130.488 411.98C127.368 405.176 129.66 395.999 124.26 390.824L121.764 396.262C121.333 397.406 120.662 398.443 119.796 399.305C119.356 399.729 118.795 400.005 118.19 400.095C117.586 400.185 116.969 400.085 116.424 399.809C114.816 398.778 115.224 396.358 115.932 394.573C117.72 389.989 119.925 385.578 122.52 381.395C120.708 380.545 118.92 382.402 117.552 383.911C116.184 385.421 113.7 386.738 112.476 385.109C112.112 384.57 111.943 383.924 111.996 383.276C111.996 380.125 114.168 377.382 116.46 375.214C118.752 373.045 121.38 371.093 122.916 368.325C121.193 368.85 119.361 368.9 117.612 368.469C115.92 367.882 114.552 365.953 115.212 364.3C117.251 361.987 119.51 359.877 121.956 357.998C124.704 357.124 127.392 359.664 129.48 361.173C135.984 365.901 141.82 371.482 146.832 377.765Z" fill="#EBEBEB"/>
<path d="M131.664 404.529C131.664 403.618 131.664 402.72 131.664 401.821C131.364 376.016 126.792 366.384 125.664 366.109L125.532 364.911C125.732 364.89 125.934 364.915 126.123 364.983C126.313 365.052 126.484 365.162 126.624 365.306C129.024 367.355 132.624 378.772 132.924 401.797C132.924 402.696 132.924 403.594 132.924 404.505L131.664 404.529Z" fill="#E0E0E0"/>
<path d="M131.652 417.85C131.652 417.084 131.652 406.098 131.652 401.965V400.348C131.652 375.645 135.42 363.377 137.94 361.161C138.082 361.015 138.255 360.902 138.446 360.83C138.636 360.757 138.841 360.727 139.044 360.742L138.888 361.94C137.688 362.239 132.888 372.59 132.888 400.36V401.977C132.888 406.11 132.888 417.096 132.888 417.838L131.652 417.85Z" fill="#E0E0E0"/>
<path d="M148.608 457.756H116.196L113.016 418.833H151.776L148.608 457.756Z" fill="#F0F0F0"/>
<path d="M154.296 420.845H110.184L109.392 415.67H155.088L154.296 420.845Z" fill="#FAFAFA"/>
<path d="M89.004 356.177C86.76 356.117 84.204 356.249 82.728 357.891C81.9639 358.866 81.5932 360.092 81.6887 361.327C81.7842 362.562 82.339 363.716 83.244 364.563C84.1904 365.37 85.3264 365.925 86.5458 366.174C87.7652 366.423 89.028 366.36 90.216 365.989C91.704 365.57 93.072 364.791 94.56 364.384C98.844 363.186 103.356 364.911 107.472 366.636C104.16 369.427 99.468 369.894 95.148 369.511C90.828 369.128 86.556 368.026 82.224 368.157C77.892 368.289 73.2 369.966 71.112 373.776C70.9139 374.072 70.798 374.415 70.776 374.77C70.8377 375.267 71.0866 375.721 71.472 376.04C74.688 379.287 79.944 379.203 84.432 378.316C88.92 377.43 93.576 375.992 97.968 377.274C92.652 379.251 86.676 378.28 81.168 379.55C77.6131 380.412 74.337 382.165 71.6494 384.643C68.9617 387.121 66.9513 390.241 65.808 393.711C65.6836 393.99 65.6193 394.292 65.6193 394.597C65.6193 394.903 65.6836 395.205 65.808 395.484C66.264 396.25 67.368 396.227 68.208 396.035C76.884 394.142 83.976 385.421 92.748 386.834L89.364 393.088C88.5806 394.31 88.0729 395.687 87.876 397.125C87.7755 397.851 87.9084 398.59 88.2556 399.236C88.6028 399.882 89.1463 400.401 89.808 400.719C91.932 401.51 93.924 399.365 95.124 397.449C98.2183 392.476 100.849 387.231 102.984 381.779C105.096 382.881 104.64 385.948 104.184 388.272C103.728 390.596 104.184 393.926 106.584 393.962C107.356 393.922 108.092 393.622 108.672 393.112C111.648 390.824 112.728 386.858 113.148 383.132C113.568 379.407 113.544 375.525 115.08 372.099C115.808 374.11 117.074 375.883 118.74 377.226C120.504 378.424 123.3 378.328 124.392 376.495C125.138 372.916 125.54 369.273 125.592 365.618C124.464 362.395 120.132 361.652 117.192 360.766C108.049 357.963 98.5654 356.419 89.004 356.177Z" fill="#F5F5F5"/>
<path d="M145.776 397.736C146.772 399.737 148.068 401.893 150.228 402.456C151.452 402.675 152.713 402.428 153.762 401.762C154.811 401.096 155.571 400.061 155.892 398.862C156.163 397.65 156.12 396.39 155.767 395.199C155.414 394.009 154.763 392.927 153.876 392.057C152.82 390.943 151.476 390.093 150.42 388.979C147.336 385.768 146.82 380.964 146.364 376.531C150.384 378.149 153.012 382.066 154.692 386.115C156.372 390.165 157.404 394.382 159.552 398.095C161.7 401.809 165.36 405.164 169.692 405.283C170.046 405.321 170.404 405.259 170.724 405.104C171.134 404.821 171.422 404.392 171.528 403.906C172.896 399.545 170.328 394.945 167.46 391.399C164.592 387.852 161.112 384.426 160.188 379.958C164.436 383.719 166.38 389.446 170.1 393.723C172.528 396.455 175.614 398.523 179.066 399.73C182.519 400.938 186.223 401.245 189.828 400.623C190.134 400.605 190.433 400.523 190.706 400.382C190.979 400.242 191.219 400.047 191.412 399.809C191.868 399.054 191.328 398.095 190.752 397.413C185.004 390.644 173.952 388.487 171.108 380.089H178.224C179.673 380.202 181.129 380.006 182.496 379.514C183.172 379.251 183.748 378.784 184.146 378.179C184.544 377.574 184.743 376.86 184.716 376.136C184.428 373.896 181.596 373.141 179.34 372.985C173.488 372.588 167.611 372.724 161.784 373.393C161.784 370.997 164.7 369.99 166.98 369.331C169.26 368.673 171.972 366.624 170.88 364.539C170.484 363.879 169.874 363.372 169.152 363.102C165.732 361.544 161.712 362.467 158.22 363.845C154.728 365.222 151.308 367.043 147.564 367.307C148.99 365.714 149.964 363.77 150.384 361.676C150.6 359.568 149.184 357.136 147.084 357.04C143.569 358.064 140.161 359.424 136.908 361.101C134.592 363.617 135.96 367.774 136.548 370.769C138.382 380.135 141.487 389.207 145.776 397.736Z" fill="#F0F0F0"/>
<path opacity="0.2" d="M323.748 104.669C323.748 105.089 323.748 105.496 323.748 105.867V136.872H281.076L278.808 134.727L281.076 104.633C281.076 98.9841 283.324 93.5662 287.325 89.5716C291.326 85.577 296.753 83.3329 302.412 83.3329C308.071 83.3329 313.498 85.577 317.499 89.5716C321.5 93.5662 323.748 98.9841 323.748 104.633V104.669Z" fill="black"/>
<path d="M321.48 102.525C321.48 102.932 321.48 103.351 321.48 103.723V134.727H278.808V102.525C278.808 99.7277 279.36 96.9578 280.432 94.3735C281.504 91.7892 283.076 89.4411 285.057 87.4632C287.038 85.4853 289.39 83.9163 291.979 82.8458C294.568 81.7754 297.342 81.2244 300.144 81.2244C302.946 81.2244 305.72 81.7754 308.309 82.8458C310.898 83.9163 313.25 85.4853 315.231 87.4632C317.212 89.4411 318.784 91.7892 319.856 94.3735C320.928 96.9578 321.48 99.7277 321.48 102.525Z" fill="#F0F0F0"/>
<path d="M315.65 105.414C316.973 97.2769 311.438 89.6093 303.287 88.2884C295.136 86.9675 287.455 92.4935 286.132 100.631C284.809 108.768 290.344 116.436 298.495 117.757C306.646 119.078 314.327 113.552 315.65 105.414Z" fill="#E0E0E0"/>
<path d="M299.148 117.668C307.406 117.668 314.1 110.984 314.1 102.74C314.1 94.4965 307.406 87.8134 299.148 87.8134C290.89 87.8134 284.196 94.4965 284.196 102.74C284.196 110.984 290.89 117.668 299.148 117.668Z" fill="white"/>
<path d="M300.144 103.735C300.144 103.972 300.074 104.203 299.942 104.4C299.81 104.597 299.623 104.751 299.403 104.842C299.184 104.932 298.943 104.956 298.71 104.91C298.477 104.864 298.263 104.749 298.095 104.582C297.928 104.414 297.813 104.201 297.767 103.969C297.721 103.736 297.745 103.495 297.835 103.276C297.926 103.057 298.08 102.87 298.277 102.739C298.475 102.607 298.707 102.537 298.944 102.537C299.262 102.537 299.567 102.663 299.793 102.888C300.018 103.112 300.144 103.417 300.144 103.735Z" fill="#E0E0E0"/>
<path d="M298.788 104.19L293.628 99.3382L294.132 98.7991L298.812 103.196L307.2 95.8041L307.68 96.3432L298.788 104.19Z" fill="#E0E0E0"/>
<path d="M159.396 244.14C153.12 245.338 141.396 246.093 127.92 246.093C114.444 246.093 102.72 245.314 96.444 244.14C96.1603 244.792 95.7528 245.382 95.244 245.878C93.192 247.914 89.148 247.183 87.84 245.878C86.532 244.572 85.8 240.534 87.84 238.498C88.284 238.055 89.04 238.007 89.316 237.48C91.476 233.119 87.624 224.781 87.624 215.772C87.624 206.763 91.476 198.449 89.304 194.076C88.44 192.327 86.316 191.452 86.316 189.368C86.316 187.283 88.44 186.421 89.304 184.672C91.464 180.299 87.624 171.961 87.624 162.964C87.624 153.967 91.476 145.629 89.316 141.256C89.052 140.741 88.284 140.681 87.84 140.25C85.8 138.213 86.532 134.176 87.84 132.87C89.148 131.564 93.192 130.834 95.244 132.87C95.748 133.385 95.796 134.272 96.444 134.607C102.036 137.674 114.444 132.643 127.92 132.643C141.396 132.643 153.804 137.674 159.396 134.607C159.996 134.272 160.032 133.409 160.596 132.87C162.636 130.834 166.692 131.564 167.988 132.87C169.284 134.176 170.04 138.213 167.988 140.25C167.556 140.681 166.788 140.741 166.524 141.256C164.364 145.629 168.216 153.967 168.216 162.964C168.216 171.961 164.364 180.299 166.524 184.672C167.4 186.421 169.524 187.283 169.524 189.368C169.524 191.452 167.4 192.327 166.524 194.076C164.364 198.449 168.216 206.787 168.216 215.772C168.216 224.757 164.364 233.119 166.524 237.48C166.788 238.007 167.556 238.055 167.988 238.498C170.04 240.534 169.296 244.572 167.988 245.878C166.68 247.183 162.636 247.914 160.596 245.878C160.079 245.388 159.671 244.796 159.396 244.14Z" fill="#E0E0E0"/>
<path d="M161.784 241.756C155.508 242.954 143.784 243.721 130.308 243.721C116.832 243.721 105.108 242.93 98.82 241.756C98.5453 242.412 98.1366 243.004 97.62 243.494C95.58 245.53 91.536 244.799 90.228 243.494C88.92 242.188 88.188 238.15 90.228 236.114C90.66 235.683 91.428 235.623 91.692 235.108C93.852 230.735 90 222.397 90 213.4C90 204.403 93.852 196.065 91.692 191.692C90.828 189.943 88.692 189.068 88.692 186.996C88.692 184.923 90.828 184.037 91.692 182.288C93.9 177.915 90 169.577 90 160.532C90 151.487 93.852 143.197 91.692 138.824C91.44 138.309 90.66 138.261 90.228 137.818C88.188 135.781 88.92 131.744 90.228 130.438C91.536 129.132 95.58 128.402 97.62 130.438C98.136 130.953 98.172 131.852 98.82 132.175C104.424 135.242 116.82 130.211 130.308 130.211C143.796 130.211 156.18 135.242 161.784 132.175C162.384 131.852 162.42 130.977 162.984 130.438C165.024 128.402 169.068 129.132 170.376 130.438C171.684 131.744 172.416 135.781 170.376 137.818C169.944 138.261 169.176 138.309 168.912 138.824C166.752 143.197 170.604 151.535 170.604 160.532C170.604 169.529 166.752 177.867 168.912 182.24C169.776 183.989 171.912 184.863 171.912 186.948C171.912 189.032 169.776 189.895 168.912 191.644C166.752 196.017 170.604 204.355 170.604 213.352C170.604 222.349 166.752 230.687 168.912 235.06C169.176 235.575 169.944 235.635 170.376 236.066C172.416 238.103 171.684 242.14 170.376 243.446C169.068 244.751 165.024 245.482 162.984 243.446C162.473 242.97 162.064 242.395 161.784 241.756Z" fill="#FAFAFA"/>
<path d="M98.796 233.862H161.796V140.118H98.796L98.796 233.862Z" fill="#EBEBEB"/>
<path d="M374.004 139.711C374.004 139.711 405.492 109.018 448.2 109.018C490.908 109.018 518.4 139.711 518.4 139.711V384.103H374.004V139.711Z" fill="#F5F5F5"/>
<path d="M514.8 140.885C496.486 123.159 471.98 113.246 446.472 113.246C420.964 113.246 396.458 123.159 378.144 140.885V380.964H514.8V140.885ZM510.528 376.675H382.392V142.706C399.779 126.515 422.671 117.511 446.448 117.511C470.225 117.511 493.117 126.515 510.504 142.706L510.528 376.675Z" fill="#E0E0E0"/>
<path d="M522.24 388.392H370.644V137.77L371.736 136.668C391.552 116.893 418.424 105.784 446.442 105.784C474.46 105.784 501.332 116.893 521.148 136.668L522.24 137.77V388.392ZM378.12 380.964H514.8V140.885C496.486 123.159 471.98 113.246 446.472 113.246C420.964 113.246 396.458 123.159 378.144 140.885L378.12 380.964Z" fill="#EBEBEB"/>
<path d="M466.728 116.997V136.5H426.156V116.997C423.636 117.536 421.14 118.195 418.692 118.89V136.5H385.5C383.52 138.105 381.576 139.783 379.716 141.568V143.964H418.692V217.377H379.716V224.829H418.692V298.613H379.716V306.077H418.692V379.335H426.156V306.077H466.728V379.335H474.204V306.077H513.168V298.613H474.204V224.829H513.168V217.377H474.204V143.964H513.168V141.568C511.308 139.783 509.376 138.105 507.396 136.5H474.204V118.89C471.744 118.159 469.2 117.536 466.728 116.997ZM466.728 298.613H426.156V224.829H466.728V298.613ZM466.728 217.377H426.156V143.964H466.728V217.377Z" fill="#E6E6E6"/>
<path d="M534.408 389.015H357.036V404.277H534.408V389.015Z" fill="#F0F0F0"/>
<path d="M300 511.558C428.499 511.558 532.668 505.486 532.668 497.997C532.668 490.507 428.499 484.435 300 484.435C171.501 484.435 67.332 490.507 67.332 497.997C67.332 505.486 171.501 511.558 300 511.558Z" fill="#F5F5F5"/>
<path d="M417.6 440.073C417.6 440.073 422.4 441.175 424.632 447.141C426.864 453.108 433.656 456.809 438.036 456.594C439.8 456.51 441.456 457.336 443.4 458.463L445.092 459.433C445.02 458.846 444.96 458.235 444.924 457.6C444.456 457.241 443.988 456.845 443.532 456.402C443.434 456.296 443.33 456.196 443.22 456.103C437.94 451.035 437.796 445.704 431.64 440.912C425.484 436.12 417.6 440.073 417.6 440.073Z" fill="#948E8E"/>
<path d="M468.84 434.778C467.276 435.539 465.916 436.66 464.873 438.05C463.83 439.439 463.133 441.057 462.84 442.769C461.484 448.986 455.268 453.611 450.84 454.006C449.088 454.174 447.564 455.204 445.8 456.618C445.308 456.989 444.804 457.396 444.264 457.816C444.264 457.217 444.264 456.618 444.168 455.971C444.588 455.539 444.984 455.096 445.368 454.617C445.452 454.497 445.548 454.389 445.632 454.282C450.144 448.519 449.544 443.224 454.956 437.605C460.368 431.987 468.84 434.778 468.84 434.778Z" fill="#948E8E"/>
<path d="M445.896 456.618C446.04 459.953 445.692 463.291 444.864 466.525C441.9 478.026 441.6 473.773 441.6 473.773C441.6 473.773 444.456 462.991 444.36 457.828C444.36 457.229 444.36 456.63 444.264 455.983C444.09 453.693 443.626 451.435 442.884 449.262C439.752 440.229 433.5 437.438 431.028 427.698C428.556 417.958 437.124 411.094 437.124 411.094C437.124 411.094 435.924 417.18 441.732 422.762C447.54 428.345 448.32 438.049 445.848 442.984C444.408 445.86 445.32 449.466 445.74 454.258C445.812 455.036 445.86 455.815 445.896 456.618Z" fill="#948E8E"/>
<path d="M451.2 505.7H432C431.01 505.7 430.054 505.342 429.308 504.692C428.562 504.043 428.077 503.145 427.944 502.166L422.832 464.297H460.332L455.208 502.166C455.076 503.137 454.598 504.028 453.862 504.677C453.126 505.326 452.182 505.689 451.2 505.7Z" fill="#948E8E"/>
<path d="M463.464 464.165V471.125H459.42L455.22 502.154C455.092 503.133 454.61 504.032 453.866 504.682C453.121 505.333 452.165 505.69 451.176 505.688H432C431.012 505.685 430.059 505.326 429.315 504.676C428.572 504.027 428.089 503.131 427.956 502.154L423.756 471.125H419.1V464.165H463.464Z" fill="#948E8E"/>
<path opacity="0.5" d="M463.464 464.165V471.125H459.42L455.22 502.154C455.092 503.133 454.61 504.032 453.866 504.682C453.121 505.333 452.165 505.69 451.176 505.688H432C431.012 505.685 430.059 505.326 429.315 504.676C428.572 504.027 428.089 503.131 427.956 502.154L423.756 471.125H419.1V464.165H463.464Z" fill="black"/>
<path d="M235.74 385.624C235.625 386.774 235.091 387.841 234.239 388.623C233.387 389.405 232.277 389.847 231.12 389.865C230.576 389.875 230.036 389.769 229.536 389.555C229.036 389.34 228.588 389.021 228.221 388.62C227.854 388.219 227.577 387.744 227.409 387.227C227.24 386.711 227.184 386.164 227.244 385.624C227.376 384.481 227.915 383.424 228.764 382.646C229.612 381.867 230.712 381.419 231.864 381.383C232.408 381.373 232.948 381.479 233.448 381.694C233.948 381.908 234.396 382.227 234.763 382.628C235.13 383.03 235.407 383.505 235.575 384.021C235.744 384.538 235.8 385.084 235.74 385.624Z" fill="#948E8E"/>
<path d="M238.524 382.737C238.404 382.732 238.287 382.701 238.18 382.648C238.072 382.594 237.978 382.518 237.902 382.425C237.826 382.333 237.771 382.225 237.739 382.109C237.708 381.994 237.701 381.873 237.72 381.755C237.936 379.359 235.452 377.406 232.068 377.406C228.684 377.406 225.78 380.305 225.66 381.755C225.643 382.01 225.534 382.25 225.353 382.431C225.172 382.611 224.932 382.72 224.676 382.737C224.556 382.732 224.439 382.701 224.332 382.648C224.224 382.594 224.13 382.518 224.054 382.425C223.978 382.333 223.923 382.225 223.891 382.109C223.86 381.994 223.853 381.873 223.872 381.755C224.124 378.903 228.036 375.429 232.272 375.429C236.508 375.429 239.844 378.209 239.532 381.755C239.515 382.014 239.402 382.257 239.216 382.438C239.03 382.619 238.784 382.726 238.524 382.737Z" fill="#948E8E"/>
<path d="M240.888 377.178C240.768 377.173 240.651 377.143 240.544 377.089C240.436 377.035 240.342 376.959 240.266 376.867C240.19 376.774 240.135 376.666 240.103 376.551C240.072 376.435 240.065 376.314 240.084 376.196C240.288 373.8 236.868 371.847 232.452 371.847C227.82 371.847 224.172 374.89 224.052 376.196C224.035 376.451 223.926 376.691 223.745 376.872C223.564 377.053 223.323 377.161 223.068 377.178C222.948 377.173 222.831 377.143 222.724 377.089C222.616 377.035 222.522 376.959 222.446 376.867C222.37 376.774 222.315 376.666 222.283 376.551C222.252 376.435 222.245 376.314 222.264 376.196C222.516 373.345 227.34 369.871 232.62 369.871C238.2 369.871 242.22 372.59 241.86 376.196C241.844 376.449 241.736 376.688 241.558 376.868C241.379 377.049 241.141 377.159 240.888 377.178Z" fill="#948E8E"/>
<path d="M243.204 372.099C243.083 372.094 242.964 372.063 242.856 372.009C242.748 371.954 242.653 371.877 242.577 371.783C242.501 371.689 242.446 371.58 242.415 371.463C242.385 371.346 242.379 371.224 242.4 371.104C242.58 369.008 238.8 366.768 232.8 366.768C226.8 366.768 222.528 369.99 222.432 371.104C222.421 371.361 222.316 371.604 222.136 371.787C221.957 371.97 221.716 372.081 221.46 372.099C221.339 372.094 221.22 372.063 221.111 372.008C221.002 371.954 220.906 371.878 220.829 371.784C220.752 371.69 220.696 371.581 220.664 371.464C220.632 371.347 220.625 371.224 220.644 371.104C220.896 368.265 226.644 364.791 232.98 364.791C239.796 364.791 244.524 367.451 244.2 371.104C244.186 371.364 244.076 371.608 243.892 371.792C243.709 371.975 243.464 372.084 243.204 372.099Z" fill="#948E8E"/>
<path d="M449.52 325.808H130.968L148.632 124.197H467.184L449.52 325.808Z" fill="#948E8E"/>
<path d="M445.2 341.586H131.22C129.155 341.622 127.106 341.218 125.21 340.403C123.313 339.587 121.612 338.377 120.22 336.854C118.828 335.33 117.777 333.529 117.137 331.568C116.497 329.608 116.283 327.534 116.508 325.485L134.064 125.143C134.514 120.781 136.546 116.734 139.778 113.764C143.009 110.794 147.217 109.106 151.608 109.018H465.516C467.581 108.982 469.63 109.385 471.527 110.201C473.423 111.017 475.124 112.227 476.516 113.75C477.908 115.273 478.959 117.075 479.599 119.035C480.239 120.996 480.453 123.07 480.228 125.119L462.672 325.485C462.218 329.83 460.194 333.862 456.978 336.825C453.762 339.789 449.575 341.481 445.2 341.586Z" fill="#263238"/>
<path d="M445.188 325.808H144.288L161.964 124.197H462.852L445.188 325.808Z" fill="#948E8E"/>
<path d="M445.128 325.88H144.264L161.928 124.281H462.792L445.128 325.88Z" fill="white"/>
<path d="M460.56 149.834H159.684L161.928 124.281H462.792L460.56 149.834Z" fill="#948E8E"/>
<path d="M296.358 217.571C300.169 213.929 300.549 208.152 297.208 204.668C293.867 201.183 288.07 201.311 284.259 204.953C280.448 208.595 280.067 214.372 283.408 217.856C286.749 221.341 292.547 221.213 296.358 217.571Z" fill="#948E8E"/>
<path d="M177.028 255.385C180.826 251.751 181.203 245.99 177.869 242.517C174.535 239.045 168.754 239.175 164.955 242.809C161.157 246.443 160.78 252.204 164.114 255.677C167.448 259.15 173.229 259.019 177.028 255.385Z" fill="#263238"/>
<path d="M268.668 268.172C268.413 270.645 267.261 272.938 265.428 274.62C263.595 276.302 261.209 277.256 258.72 277.301C257.549 277.322 256.388 277.093 255.312 276.63C254.237 276.168 253.273 275.482 252.484 274.618C251.694 273.755 251.099 272.733 250.736 271.622C250.373 270.51 250.252 269.334 250.38 268.172C250.635 265.7 251.787 263.406 253.62 261.725C255.453 260.043 257.839 259.089 260.328 259.044C261.499 259.023 262.66 259.251 263.736 259.714C264.811 260.177 265.775 260.863 266.564 261.726C267.353 262.59 267.949 263.612 268.312 264.723C268.675 265.834 268.796 267.01 268.668 268.172Z" fill="#948E8E"/>
<path d="M171.3 196.208L172.152 194.615C172.864 195.088 173.697 195.35 174.552 195.37C175.452 195.37 175.824 195.118 175.86 194.747C175.968 193.549 171.528 194.411 171.78 191.572C171.9 190.206 173.112 189.08 175.38 189.08C176.331 189.064 177.27 189.296 178.104 189.751L177.3 191.368C176.671 190.994 175.956 190.788 175.224 190.769C174.312 190.769 173.952 191.081 173.916 191.464C173.82 192.662 178.248 191.752 178.008 194.579C177.888 195.921 176.664 197.059 174.408 197.059C173.311 197.084 172.231 196.788 171.3 196.208Z" fill="#263238"/>
<path d="M207.888 196.903L208.212 192.842L205.956 196.149H204.984L203.304 192.95L202.956 196.903H200.952L201.6 189.284H203.388L205.692 193.717L208.8 189.284H210.588L209.94 196.951L207.888 196.903Z" fill="#263238"/>
<path d="M233.256 190.961H230.856L231.012 189.236H237.888L237.744 190.961H235.344L234.816 196.951H232.644L233.256 190.961Z" fill="#263238"/>
<path d="M272.496 189.284L269.34 196.951H267.012L265.956 192.291L264 196.903H261.672L259.848 189.236H262.092L263.208 194.136L265.26 189.236H267.252L268.368 194.172L270.42 189.236L272.496 189.284Z" fill="#263238"/>
<path d="M290.628 190.961H288.228L288.384 189.236H295.26L295.2 190.961H292.8L292.272 196.951H290.1L290.628 190.961Z" fill="#263238"/>
<path d="M319.848 190.913L319.704 192.602H323.1L322.944 194.28H319.56L319.332 196.903H317.16L317.832 189.236H323.832L323.676 190.913H319.848Z" fill="#263238"/>
<path d="M345.36 196.208L346.224 194.615C346.954 195.099 347.808 195.361 348.684 195.37C349.584 195.37 349.956 195.118 349.992 194.747C350.1 193.549 345.66 194.411 345.9 191.572C346.02 190.206 347.244 189.08 349.5 189.08C350.451 189.064 351.39 189.296 352.224 189.751L351.42 191.368C350.79 190.995 350.076 190.789 349.344 190.769C348.432 190.769 348.072 191.081 348.036 191.464C347.94 192.662 352.368 191.752 352.116 194.579C352.008 195.921 350.784 197.059 348.516 197.059C347.403 197.088 346.307 196.793 345.36 196.208Z" fill="#263238"/>
<path d="M233.016 208.117L232.344 215.784H230.172L230.7 209.794H229.272L229.416 208.117H233.016Z" fill="#263238"/>
<path d="M263.82 214.059L263.664 215.784H257.664L257.784 214.418L260.892 211.734C261.564 211.171 261.684 210.824 261.708 210.536C261.732 210.249 261.444 209.746 260.784 209.746C260.504 209.745 260.227 209.812 259.978 209.941C259.729 210.07 259.516 210.258 259.356 210.489L257.82 209.59C258.198 209.07 258.7 208.652 259.28 208.374C259.86 208.095 260.501 207.966 261.144 207.997C262.908 207.997 264.048 208.907 263.916 210.333C263.852 210.817 263.684 211.282 263.423 211.696C263.162 212.11 262.814 212.462 262.404 212.729L260.832 214.059H263.82Z" fill="#263238"/>
<path d="M292.548 213.376C292.428 214.682 291.348 215.927 288.948 215.927C287.925 215.949 286.916 215.688 286.032 215.173L286.968 213.543C287.578 213.963 288.303 214.185 289.044 214.178C289.776 214.178 290.244 213.891 290.328 213.376C290.412 212.861 290.052 212.633 289.224 212.633H288.312L288.432 211.267L289.932 209.794H286.92L287.076 208.117H292.62L292.5 209.47L290.76 211.183C291.022 211.209 291.277 211.286 291.509 211.41C291.741 211.534 291.946 211.703 292.112 211.907C292.278 212.111 292.403 212.346 292.477 212.598C292.552 212.85 292.576 213.114 292.548 213.376Z" fill="#263238"/>
<path d="M322.476 214.31H321.276L321.144 215.784H319.032L319.152 214.31H315.096L315.228 212.897L319.092 208.105H321.336L317.82 212.585H319.38L319.488 211.279H321.6L321.48 212.585H322.68L322.476 214.31Z" fill="#263238"/>
<path d="M350.04 213.316C349.92 214.682 348.78 215.927 346.44 215.927C345.42 215.951 344.415 215.69 343.536 215.173L344.46 213.543C345.07 213.963 345.795 214.185 346.536 214.178C347.268 214.178 347.736 213.879 347.832 213.376C347.928 212.873 347.58 212.597 346.404 212.597H344.4L345.168 208.117H350.064L349.92 209.794H346.8L346.608 210.908H347.124C349.368 210.908 350.16 211.962 350.04 213.316Z" fill="#263238"/>
<path d="M174.852 232.196C174.75 232.965 174.355 233.666 173.75 234.152C173.144 234.638 172.374 234.873 171.6 234.808C169.452 234.808 168.156 233.514 168.372 231.034C168.381 230.465 168.504 229.903 168.735 229.382C168.965 228.861 169.297 228.391 169.712 228C170.127 227.609 170.616 227.305 171.151 227.106C171.685 226.907 172.254 226.817 172.824 226.841C173.598 226.811 174.364 227.003 175.032 227.392L174.108 228.95C173.703 228.672 173.219 228.534 172.728 228.554C172.216 228.527 171.712 228.697 171.322 229.029C170.931 229.361 170.683 229.83 170.628 230.339C171.139 229.948 171.772 229.749 172.416 229.776C172.743 229.743 173.074 229.782 173.384 229.892C173.694 230.002 173.975 230.179 174.208 230.41C174.442 230.642 174.62 230.922 174.731 231.231C174.843 231.54 174.884 231.87 174.852 232.196ZM172.74 232.292C172.756 232.161 172.741 232.029 172.698 231.905C172.655 231.78 172.583 231.668 172.489 231.575C172.396 231.483 172.282 231.413 172.157 231.371C172.032 231.329 171.899 231.316 171.768 231.334C171.488 231.314 171.212 231.404 170.999 231.586C170.786 231.767 170.653 232.025 170.628 232.304C170.568 232.867 170.952 233.263 171.612 233.263C171.755 233.281 171.899 233.27 172.037 233.23C172.176 233.191 172.304 233.124 172.415 233.033C172.527 232.942 172.618 232.829 172.684 232.702C172.75 232.575 172.79 232.435 172.8 232.292H172.74Z" fill="#263238"/>
<path d="M204.156 226.997L204.036 228.351L200.784 234.652H198.384L201.492 228.662H199.476L199.368 229.86H197.52L197.772 226.961L204.156 226.997Z" fill="#263238"/>
<path d="M234.216 232.412C234.096 233.886 232.656 234.808 230.616 234.808C228.576 234.808 227.364 233.874 227.496 232.412C227.524 232.036 227.65 231.674 227.86 231.362C228.071 231.049 228.359 230.796 228.696 230.627C228.454 230.454 228.263 230.219 228.143 229.947C228.023 229.676 227.978 229.377 228.012 229.082C228.132 227.728 229.452 226.853 231.264 226.853C233.076 226.853 234.252 227.728 234.132 229.082C234.101 229.395 233.998 229.698 233.832 229.966C233.666 230.234 233.44 230.46 233.172 230.627C233.51 230.78 233.792 231.033 233.979 231.353C234.166 231.673 234.249 232.043 234.216 232.412ZM232.044 232.352C232.044 231.753 231.66 231.394 230.976 231.394C230.69 231.363 230.403 231.447 230.179 231.626C229.954 231.806 229.809 232.067 229.776 232.352C229.776 232.939 230.148 233.299 230.844 233.299C231.13 233.326 231.414 233.241 231.638 233.062C231.862 232.883 232.008 232.624 232.044 232.34V232.352ZM230.256 229.177C230.256 229.681 230.544 229.98 231.096 229.98C231.214 229.993 231.334 229.983 231.448 229.95C231.563 229.917 231.669 229.861 231.762 229.786C231.854 229.712 231.931 229.619 231.988 229.515C232.045 229.41 232.08 229.296 232.092 229.177C232.092 228.674 231.78 228.375 231.24 228.375C231.005 228.351 230.77 228.421 230.586 228.569C230.402 228.717 230.283 228.931 230.256 229.165V229.177Z" fill="#263238"/>
<path d="M262.8 230.615C262.791 231.185 262.667 231.748 262.436 232.27C262.206 232.792 261.872 233.263 261.456 233.654C261.04 234.045 260.549 234.348 260.013 234.546C259.477 234.745 258.907 234.834 258.336 234.808C257.566 234.836 256.805 234.645 256.14 234.257L257.064 232.7C257.469 232.977 257.953 233.116 258.444 233.095C258.952 233.117 259.449 232.946 259.836 232.617C260.223 232.288 260.472 231.826 260.532 231.322C260.021 231.703 259.394 231.898 258.756 231.873C258.434 231.9 258.11 231.857 257.806 231.746C257.503 231.635 257.227 231.46 256.998 231.232C256.77 231.004 256.594 230.728 256.483 230.425C256.372 230.122 256.329 229.798 256.356 229.477C256.458 228.712 256.849 228.016 257.45 227.53C258.05 227.044 258.814 226.806 259.584 226.865C261.732 226.841 263.028 228.135 262.8 230.615ZM260.556 229.345C260.556 228.782 260.232 228.387 259.572 228.387C259.294 228.367 259.019 228.458 258.808 228.64C258.596 228.821 258.465 229.079 258.444 229.357C258.428 229.488 258.443 229.62 258.486 229.745C258.529 229.869 258.601 229.982 258.695 230.074C258.788 230.167 258.902 230.237 259.027 230.278C259.152 230.32 259.285 230.333 259.416 230.315C259.698 230.339 259.977 230.25 260.193 230.068C260.409 229.886 260.544 229.626 260.568 229.345H260.556Z" fill="#263238"/>
<path d="M288.732 226.997L288.06 234.652H285.888L286.416 228.662H284.988L285.132 226.997H288.732Z" fill="#263238"/>
<path d="M289.548 230.819C289.764 228.291 291.324 226.841 293.292 226.841C295.26 226.841 296.532 228.291 296.316 230.819C296.1 233.346 294.54 234.808 292.584 234.808C290.628 234.808 289.332 233.358 289.548 230.819ZM294.132 230.819C294.276 229.213 293.82 228.614 293.136 228.614C292.452 228.614 291.876 229.213 291.732 230.819C291.588 232.424 292.044 233.035 292.74 233.035C293.436 233.035 294 232.412 294.132 230.819Z" fill="#263238"/>
<path d="M317.412 226.997L316.74 234.652H314.568L315.096 228.662H313.668L313.824 226.997H317.412Z" fill="#263238"/>
<path d="M321.864 226.997L321.192 234.652H319.02L319.548 228.662H318.12L318.264 226.997H321.864Z" fill="#263238"/>
<path d="M346.104 226.997L345.432 234.652H343.26L343.788 228.662H342.36L342.504 226.997H346.104Z" fill="#263238"/>
<path d="M352.668 232.939L352.512 234.652H346.512L346.632 233.298L349.74 230.615C350.412 230.052 350.532 229.693 350.556 229.417C350.556 228.926 350.292 228.626 349.632 228.626C349.352 228.625 349.075 228.692 348.826 228.821C348.577 228.951 348.364 229.139 348.204 229.369L346.668 228.471C347.046 227.95 347.548 227.532 348.128 227.254C348.708 226.976 349.349 226.846 349.992 226.877C351.756 226.877 352.896 227.788 352.764 229.201C352.701 229.686 352.533 230.151 352.272 230.565C352.011 230.979 351.663 231.331 351.252 231.597L349.68 232.939H352.668Z" fill="#263238"/>
<path d="M170.4 245.865L169.728 253.533H167.556L168.084 247.543H166.656L166.8 245.865H170.4Z" fill="white"/>
<path d="M176.976 251.137C176.868 252.431 175.776 253.688 173.376 253.688C172.351 253.714 171.34 253.448 170.46 252.922L171.396 251.292C172.003 251.71 172.723 251.932 173.46 251.927C174.204 251.927 174.66 251.652 174.756 251.137C174.852 250.622 174.48 250.382 173.64 250.382H172.8L172.92 249.016L174.42 247.543H171.36L171.504 245.865H177.06L176.94 247.219L175.2 248.932C175.463 248.958 175.718 249.035 175.95 249.16C176.183 249.285 176.388 249.456 176.553 249.661C176.719 249.866 176.841 250.103 176.914 250.356C176.987 250.61 177.008 250.875 176.976 251.137Z" fill="white"/>
<path d="M199.56 245.865L198.888 253.533H196.716L197.232 247.543H195.816L195.96 245.865H199.56Z" fill="#263238"/>
<path d="M207.408 252.059H206.208L206.076 253.533H204L204.12 252.059H200.064L200.184 250.646L204.048 245.854H206.304L202.8 250.382H204.348L204.468 249.076H206.52L206.4 250.382H207.6L207.408 252.059Z" fill="#263238"/>
<path d="M229.704 245.865L229.032 253.533H226.86L227.388 247.543H225.96L226.104 245.865H229.704Z" fill="#263238"/>
<path d="M236.4 251.065C236.28 252.431 235.14 253.688 232.8 253.688C231.778 253.716 230.771 253.449 229.896 252.922L230.82 251.292C231.427 251.71 232.147 251.932 232.884 251.927C233.628 251.927 234.084 251.64 234.192 251.125C234.3 250.61 234 250.382 232.8 250.382H230.712L231.492 245.901H236.4L236.244 247.579H233.16L232.956 248.693H233.472C235.764 248.657 236.556 249.711 236.4 251.065Z" fill="#263238"/>
<path d="M258.384 245.865L257.712 253.533H255.6L256.116 247.543H254.64L254.796 245.865H258.384Z" fill="#263238"/>
<path d="M265.656 251.065C265.554 251.833 265.161 252.532 264.559 253.02C263.956 253.508 263.19 253.747 262.416 253.688C260.268 253.688 258.972 252.395 259.188 249.903C259.197 249.333 259.32 248.771 259.551 248.25C259.781 247.729 260.113 247.259 260.528 246.869C260.943 246.478 261.432 246.174 261.967 245.975C262.501 245.776 263.07 245.686 263.64 245.71C264.415 245.684 265.181 245.879 265.848 246.273L264.924 247.83C264.521 247.549 264.035 247.41 263.544 247.435C263.032 247.407 262.528 247.577 262.138 247.909C261.747 248.242 261.499 248.711 261.444 249.22C261.954 248.825 262.587 248.622 263.232 248.645C263.558 248.615 263.886 248.658 264.193 248.769C264.501 248.88 264.78 249.058 265.011 249.288C265.243 249.519 265.42 249.798 265.532 250.105C265.643 250.412 265.686 250.74 265.656 251.065ZM263.544 251.161C263.56 251.03 263.546 250.897 263.502 250.773C263.459 250.649 263.387 250.536 263.293 250.444C263.2 250.351 263.086 250.281 262.961 250.239C262.836 250.198 262.703 250.185 262.572 250.202C262.284 250.172 261.996 250.257 261.771 250.439C261.546 250.621 261.402 250.885 261.372 251.173C261.356 251.306 261.371 251.441 261.415 251.568C261.46 251.695 261.534 251.81 261.63 251.904C261.726 251.997 261.843 252.068 261.971 252.109C262.099 252.151 262.235 252.162 262.368 252.143C262.511 252.16 262.655 252.147 262.792 252.106C262.93 252.065 263.058 251.996 263.168 251.904C263.278 251.812 263.368 251.699 263.433 251.571C263.497 251.443 263.535 251.304 263.544 251.161Z" fill="#263238"/>
<path d="M287.076 245.865L286.404 253.533H284.232L284.76 247.543H283.332L283.476 245.865H287.076Z" fill="#263238"/>
<path d="M294.468 245.865L294.348 247.219L291.096 253.533H288.696L291.804 247.543H289.788L289.68 248.741H287.832L288.084 245.842L294.468 245.865Z" fill="#263238"/>
<path d="M315.756 245.865L315.096 253.533H312.924L313.44 247.543H312L312.156 245.865H315.756Z" fill="#263238"/>
<path d="M323.064 251.268C322.944 252.742 321.504 253.664 319.464 253.664C317.424 253.664 316.212 252.718 316.344 251.268C316.376 250.894 316.503 250.533 316.713 250.221C316.923 249.909 317.209 249.655 317.544 249.483C317.303 249.312 317.113 249.08 316.993 248.81C316.872 248.54 316.827 248.243 316.86 247.95C316.98 246.584 318.3 245.71 320.112 245.71C321.924 245.71 323.1 246.584 322.98 247.95C322.947 248.262 322.844 248.562 322.678 248.827C322.511 249.093 322.286 249.318 322.02 249.483C322.357 249.638 322.638 249.892 322.825 250.211C323.012 250.531 323.095 250.9 323.064 251.268ZM320.892 251.209C320.892 250.622 320.508 250.262 319.824 250.262C319.54 250.232 319.255 250.314 319.03 250.491C318.806 250.668 318.66 250.925 318.624 251.209C318.624 251.796 318.996 252.167 319.692 252.167C319.977 252.191 320.26 252.105 320.484 251.927C320.707 251.748 320.853 251.491 320.892 251.209ZM319.104 248.046C319.104 248.549 319.392 248.849 319.944 248.849C320.062 248.862 320.182 248.852 320.296 248.818C320.411 248.785 320.517 248.729 320.61 248.655C320.702 248.58 320.779 248.488 320.836 248.383C320.893 248.279 320.928 248.164 320.94 248.046C320.94 247.531 320.628 247.231 320.088 247.231C319.97 247.22 319.85 247.232 319.737 247.266C319.623 247.301 319.517 247.358 319.426 247.434C319.334 247.51 319.259 247.603 319.204 247.708C319.148 247.813 319.115 247.928 319.104 248.046Z" fill="#263238"/>
<path d="M344.4 245.865L343.728 253.533H341.556L342.084 247.543H340.656L340.8 245.865H344.4Z" fill="#263238"/>
<path d="M351.66 249.484C351.653 250.055 351.53 250.619 351.3 251.143C351.07 251.666 350.737 252.138 350.32 252.53C349.904 252.922 349.413 253.227 348.876 253.426C348.339 253.625 347.768 253.714 347.196 253.688C346.425 253.713 345.664 253.518 345 253.125L345.924 251.568C346.326 251.851 346.813 251.991 347.304 251.963C347.813 251.988 348.311 251.818 348.699 251.489C349.087 251.16 349.335 250.695 349.392 250.19C348.882 250.576 348.255 250.775 347.616 250.753C347.294 250.779 346.971 250.734 346.668 250.622C346.366 250.511 346.091 250.335 345.863 250.108C345.635 249.88 345.459 249.605 345.347 249.303C345.235 249.001 345.191 248.678 345.216 248.357C345.315 247.591 345.705 246.891 346.306 246.403C346.906 245.915 347.672 245.675 348.444 245.734C350.58 245.71 351.876 247.004 351.66 249.484ZM349.416 248.226C349.476 247.651 349.092 247.255 348.432 247.255C348.154 247.235 347.879 247.326 347.668 247.508C347.456 247.69 347.326 247.948 347.304 248.226C347.286 248.357 347.299 248.491 347.342 248.617C347.384 248.743 347.455 248.857 347.549 248.951C347.643 249.045 347.758 249.116 347.884 249.158C348.01 249.201 348.144 249.214 348.276 249.196C348.556 249.216 348.832 249.125 349.045 248.944C349.258 248.762 349.392 248.504 349.416 248.226Z" fill="#263238"/>
<path d="M170.844 270.748L170.7 272.461H164.7L164.82 271.107L168 268.352C168.672 267.777 168.792 267.43 168.816 267.154C168.84 266.878 168.552 266.363 167.892 266.363C167.611 266.362 167.335 266.429 167.086 266.558C166.837 266.688 166.624 266.876 166.464 267.106L164.928 266.208C165.307 265.688 165.809 265.271 166.389 264.992C166.969 264.714 167.609 264.584 168.252 264.614C170.016 264.614 171.156 265.525 171.024 266.938C170.96 267.423 170.792 267.888 170.531 268.301C170.27 268.715 169.922 269.067 169.512 269.334L167.88 270.748H170.844Z" fill="#263238"/>
<path d="M171.66 268.568C171.876 266.04 173.436 264.59 175.404 264.59C177.372 264.59 178.644 266.04 178.428 268.568C178.212 271.095 176.652 272.557 174.696 272.557C172.74 272.557 171.444 271.095 171.66 268.568ZM176.244 268.568C176.388 266.962 175.932 266.363 175.248 266.363C174.564 266.363 174.048 266.962 173.844 268.568C173.64 270.173 174.156 270.784 174.852 270.784C175.548 270.784 176.1 270.185 176.244 268.568Z" fill="#263238"/>
<path d="M200.028 270.748L199.872 272.461H193.872L193.992 271.107L197.1 268.424C197.76 267.849 197.88 267.501 197.904 267.226C197.928 266.95 197.652 266.435 196.992 266.435C196.709 266.432 196.43 266.498 196.179 266.628C195.928 266.757 195.713 266.946 195.552 267.178L194.016 266.279C194.395 265.761 194.898 265.344 195.477 265.066C196.057 264.788 196.697 264.657 197.34 264.686C199.104 264.686 200.244 265.597 200.124 267.01C200.057 267.495 199.886 267.96 199.623 268.374C199.36 268.787 199.011 269.139 198.6 269.406L197.04 270.748H200.028Z" fill="#263238"/>
<path d="M204.48 264.758L203.808 272.425H201.6L202.116 266.435H200.7L200.844 264.758H204.48Z" fill="#263238"/>
<path d="M230.172 270.748L230.016 272.461H224.016L224.136 271.107L227.244 268.424C227.916 267.849 228.036 267.501 228.06 267.226C228.084 266.95 227.796 266.435 227.136 266.435C226.855 266.434 226.579 266.501 226.33 266.63C226.081 266.76 225.868 266.948 225.708 267.178L224.172 266.279C224.551 265.76 225.053 265.342 225.633 265.064C226.213 264.786 226.853 264.656 227.496 264.686C229.26 264.686 230.4 265.597 230.268 267.01C230.204 267.495 230.036 267.96 229.775 268.373C229.514 268.787 229.166 269.139 228.756 269.406L227.208 270.748H230.172Z" fill="#263238"/>
<path d="M236.748 270.748L236.592 272.461H230.592L230.712 271.107L233.82 268.424C234.48 267.849 234.6 267.501 234.636 267.226C234.672 266.95 234.372 266.435 233.712 266.435C233.43 266.435 233.152 266.502 232.902 266.632C232.651 266.761 232.435 266.948 232.272 267.178L230.748 266.279C231.124 265.76 231.624 265.342 232.202 265.064C232.78 264.786 233.419 264.656 234.06 264.686C235.836 264.686 236.964 265.597 236.844 267.01C236.779 267.496 236.609 267.962 236.346 268.376C236.083 268.789 235.733 269.141 235.32 269.406L233.76 270.748H236.748Z" fill="#263238"/>
<path d="M258.852 270.748L258.708 272.461H252.708L252.828 271.107L255.96 268.352C256.62 267.777 256.74 267.43 256.764 267.154C256.788 266.878 256.512 266.363 255.852 266.363C255.569 266.36 255.29 266.426 255.039 266.556C254.788 266.685 254.573 266.874 254.412 267.106L252.876 266.208C253.255 265.689 253.758 265.272 254.337 264.994C254.917 264.716 255.557 264.586 256.2 264.614C257.964 264.614 259.104 265.525 258.984 266.938C258.917 267.423 258.746 267.889 258.483 268.302C258.22 268.715 257.871 269.067 257.46 269.334L255.9 270.676L258.852 270.748Z" fill="#263238"/>
<path d="M265.464 270.005C265.356 271.311 264.264 272.557 261.864 272.557C260.841 272.58 259.831 272.319 258.948 271.802L259.884 270.173C260.491 270.59 261.211 270.812 261.948 270.808C262.692 270.808 263.148 270.52 263.244 270.005C263.34 269.49 262.968 269.262 262.128 269.262H261.216L261.336 267.897L262.836 266.411H259.812L259.956 264.734H265.512L265.392 266.1L263.652 267.801C263.917 267.823 264.176 267.898 264.411 268.022C264.647 268.146 264.855 268.315 265.024 268.521C265.193 268.726 265.319 268.964 265.395 269.219C265.47 269.474 265.494 269.741 265.464 270.005Z" fill="#263238"/>
<path d="M287.544 270.748L287.388 272.461H281.388L281.508 271.107L284.64 268.352C285.312 267.777 285.432 267.43 285.456 267.154C285.48 266.878 285.192 266.363 284.532 266.363C284.252 266.362 283.975 266.429 283.726 266.558C283.477 266.688 283.264 266.876 283.104 267.106L281.568 266.208C281.946 265.687 282.448 265.269 283.028 264.991C283.608 264.713 284.249 264.583 284.892 264.614C286.656 264.614 287.796 265.525 287.664 266.938C287.6 267.423 287.432 267.888 287.171 268.301C286.91 268.715 286.562 269.067 286.152 269.334L284.58 270.748H287.544Z" fill="#263238"/>
<path d="M295.344 270.94H294.144L294.012 272.401H291.96L292.092 270.94H288L288.12 269.526L291.984 264.734H294.228L290.712 269.215H292.272L292.38 267.921H294.432L294.324 269.215H295.464L295.344 270.94Z" fill="#263238"/>
<path d="M316.224 270.748L316.08 272.461H310.08L310.2 271.107L313.308 268.424C313.968 267.849 314.088 267.501 314.112 267.226C314.136 266.95 313.86 266.435 313.2 266.435C312.917 266.432 312.638 266.498 312.387 266.628C312.136 266.757 311.921 266.946 311.76 267.178L310.224 266.279C310.603 265.761 311.105 265.344 311.685 265.066C312.265 264.788 312.905 264.657 313.548 264.686C315.312 264.686 316.452 265.597 316.332 267.01C316.265 267.495 316.094 267.96 315.831 268.374C315.568 268.787 315.219 269.139 314.808 269.406L313.248 270.748H316.224Z" fill="#263238"/>
<path d="M322.968 269.945C322.848 271.311 321.708 272.557 319.368 272.557C318.348 272.582 317.342 272.32 316.464 271.802L317.388 270.173C317.995 270.591 318.715 270.812 319.452 270.808C320.196 270.808 320.652 270.508 320.76 269.993C320.868 269.478 320.508 269.215 319.332 269.215H317.244L318 264.758H322.896L322.74 266.435H319.656L319.452 267.561H319.968C322.296 267.537 323.088 268.58 322.968 269.945Z" fill="#263238"/>
<path d="M344.916 270.748L344.76 272.461H338.76L338.88 271.107L342 268.352C342.672 267.777 342.78 267.43 342.816 267.154C342.852 266.878 342.552 266.363 341.892 266.363C341.611 266.362 341.335 266.429 341.086 266.558C340.837 266.688 340.624 266.876 340.464 267.106L338.928 266.208C339.306 265.687 339.808 265.269 340.388 264.991C340.968 264.713 341.609 264.583 342.252 264.614C344.016 264.614 345.156 265.525 345.024 266.938C344.96 267.423 344.792 267.888 344.531 268.301C344.27 268.715 343.922 269.067 343.512 269.334L342 270.748H344.916Z" fill="#263238"/>
<path d="M352.176 269.945C352.074 270.712 351.681 271.411 351.078 271.897C350.475 272.383 349.708 272.619 348.936 272.557C346.788 272.557 345.492 271.263 345.708 268.783C345.717 268.214 345.84 267.652 346.07 267.131C346.301 266.61 346.633 266.14 347.048 265.749C347.463 265.358 347.952 265.054 348.487 264.855C349.021 264.656 349.59 264.566 350.16 264.59C350.933 264.56 351.699 264.752 352.368 265.141L351.444 266.699C351.039 266.421 350.555 266.283 350.064 266.303C349.552 266.276 349.048 266.446 348.657 266.778C348.267 267.11 348.019 267.579 347.964 268.088C348.476 267.699 349.109 267.5 349.752 267.525C350.078 267.494 350.407 267.535 350.716 267.645C351.024 267.756 351.304 267.933 351.536 268.164C351.768 268.395 351.945 268.675 352.056 268.983C352.167 269.291 352.208 269.62 352.176 269.945ZM350.064 270.041C350.082 269.91 350.069 269.776 350.026 269.65C349.984 269.524 349.913 269.41 349.819 269.316C349.725 269.222 349.61 269.151 349.484 269.108C349.358 269.066 349.224 269.053 349.092 269.071C348.948 269.053 348.802 269.064 348.662 269.104C348.522 269.144 348.392 269.212 348.28 269.304C348.168 269.396 348.075 269.51 348.009 269.639C347.942 269.767 347.902 269.908 347.892 270.053C347.892 270.616 348.216 271.012 348.876 271.012C349.018 271.03 349.163 271.019 349.301 270.979C349.44 270.94 349.568 270.873 349.679 270.782C349.791 270.691 349.882 270.578 349.948 270.451C350.014 270.324 350.054 270.184 350.064 270.041Z" fill="#263238"/>
<path d="M169.2 289.557L169.056 291.282H163.056L163.2 289.916L166.308 287.244C166.968 286.669 167.088 286.322 167.112 286.046C167.136 285.771 166.848 285.268 166.2 285.268C165.917 285.262 165.637 285.328 165.386 285.457C165.134 285.587 164.919 285.777 164.76 286.011L163.2 285.124C163.577 284.602 164.078 284.181 164.658 283.901C165.239 283.62 165.88 283.489 166.524 283.519C168.288 283.519 169.428 284.429 169.296 285.855C169.234 286.34 169.067 286.806 168.806 287.22C168.545 287.634 168.196 287.986 167.784 288.251L166.212 289.581L169.2 289.557Z" fill="#263238"/>
<path d="M176.58 283.614L176.46 284.968L173.196 291.282H170.796L173.904 285.292H171.888L171.78 286.49H169.932L170.184 283.591L176.58 283.614Z" fill="#263238"/>
<path d="M198.372 289.557L198.216 291.282H192.216L192.336 289.916L195.444 287.244C196.104 286.669 196.224 286.322 196.26 286.046C196.296 285.771 195.996 285.268 195.336 285.268C195.053 285.265 194.774 285.331 194.523 285.46C194.272 285.59 194.057 285.779 193.896 286.011L192.372 285.112C192.745 284.589 193.244 284.168 193.823 283.887C194.401 283.607 195.041 283.476 195.684 283.507C197.46 283.507 198.588 284.417 198.468 285.843C198.401 286.328 198.23 286.793 197.967 287.206C197.704 287.62 197.355 287.972 196.944 288.239L195.384 289.569L198.372 289.557Z" fill="#263238"/>
<path d="M205.68 289.029C205.548 290.491 204.12 291.425 202.08 291.425C200.04 291.425 198.828 290.479 198.948 289.029C198.979 288.654 199.105 288.293 199.315 287.981C199.525 287.669 199.812 287.415 200.148 287.244C199.905 287.072 199.714 286.838 199.593 286.566C199.473 286.294 199.428 285.994 199.464 285.699C199.572 284.333 200.904 283.459 202.716 283.459C204.528 283.459 205.692 284.333 205.584 285.699C205.552 286.012 205.449 286.315 205.283 286.582C205.117 286.85 204.891 287.077 204.624 287.244C204.963 287.397 205.247 287.65 205.436 287.97C205.625 288.289 205.71 288.659 205.68 289.029ZM203.508 288.958C203.508 288.371 203.124 288.011 202.44 288.011C202.156 287.981 201.871 288.063 201.646 288.24C201.422 288.417 201.276 288.674 201.24 288.958C201.24 289.545 201.612 289.916 202.308 289.916C202.593 289.94 202.876 289.854 203.1 289.676C203.323 289.497 203.469 289.24 203.508 288.958ZM201.72 285.795C201.72 286.298 202.008 286.597 202.56 286.597C202.678 286.611 202.798 286.6 202.912 286.567C203.027 286.534 203.133 286.478 203.226 286.404C203.319 286.329 203.395 286.237 203.452 286.132C203.509 286.028 203.544 285.913 203.556 285.795C203.556 285.28 203.232 284.98 202.704 284.98C202.586 284.969 202.466 284.981 202.353 285.015C202.239 285.05 202.133 285.107 202.042 285.183C201.951 285.259 201.875 285.352 201.82 285.457C201.764 285.562 201.731 285.677 201.72 285.795Z" fill="#263238"/>
<path d="M228.516 289.557L228.372 291.282H222.372L222.48 289.916L225.6 287.244C226.26 286.669 226.38 286.322 226.404 286.046C226.428 285.771 226.14 285.268 225.492 285.268C225.209 285.262 224.929 285.328 224.678 285.457C224.427 285.587 224.211 285.777 224.052 286.011L222.516 285.112C222.893 284.59 223.394 284.169 223.974 283.889C224.555 283.608 225.196 283.477 225.84 283.507C227.604 283.507 228.744 284.417 228.612 285.843C228.55 286.328 228.383 286.794 228.122 287.208C227.861 287.622 227.512 287.974 227.1 288.239L225.6 289.557H228.516Z" fill="#263238"/>
<path d="M235.74 287.244C235.731 287.815 235.607 288.378 235.377 288.9C235.146 289.422 234.812 289.892 234.396 290.283C233.98 290.674 233.489 290.978 232.953 291.176C232.417 291.374 231.847 291.463 231.276 291.437C230.505 291.462 229.744 291.267 229.08 290.874L230.004 289.317C230.406 289.6 230.893 289.74 231.384 289.712C231.893 289.737 232.391 289.567 232.779 289.238C233.167 288.909 233.415 288.444 233.472 287.939C232.961 288.322 232.335 288.52 231.696 288.502C231.374 288.53 231.05 288.486 230.746 288.376C230.443 288.265 230.167 288.089 229.938 287.861C229.71 287.633 229.534 287.358 229.423 287.055C229.312 286.752 229.269 286.428 229.296 286.106C229.395 285.34 229.785 284.64 230.386 284.152C230.987 283.664 231.752 283.424 232.524 283.483C234.66 283.459 235.956 284.753 235.74 287.244ZM233.496 285.975C233.512 285.842 233.497 285.708 233.453 285.582C233.409 285.457 233.337 285.343 233.242 285.249C233.147 285.155 233.032 285.085 232.905 285.042C232.779 285 232.644 284.987 232.512 285.004C232.234 284.984 231.959 285.075 231.748 285.257C231.536 285.439 231.406 285.697 231.384 285.975C231.364 286.106 231.375 286.239 231.416 286.365C231.457 286.491 231.527 286.606 231.62 286.7C231.713 286.794 231.827 286.866 231.953 286.908C232.079 286.951 232.213 286.963 232.344 286.945C232.625 286.965 232.902 286.875 233.118 286.694C233.333 286.512 233.469 286.254 233.496 285.975Z" fill="#263238"/>
<path d="M257.244 288.886C257.124 290.18 255.984 291.437 253.644 291.437C252.621 291.458 251.612 291.196 250.728 290.683L251.664 289.041C252.274 289.461 252.999 289.683 253.74 289.676C254.472 289.676 254.94 289.401 255.024 288.886C255.108 288.371 254.748 288.143 253.92 288.143H253.008L253.128 286.765L254.628 285.292H251.604L251.748 283.615H257.292L257.172 284.968L255.432 286.681C255.697 286.704 255.956 286.779 256.191 286.903C256.427 287.026 256.635 287.196 256.804 287.401C256.973 287.607 257.099 287.844 257.175 288.099C257.25 288.354 257.274 288.622 257.244 288.886Z" fill="#263238"/>
<path d="M258.072 287.448C258.3 284.92 259.848 283.459 261.816 283.459C263.784 283.459 265.056 284.92 264.84 287.448C264.624 289.976 263.064 291.437 261.108 291.437C259.152 291.437 257.856 289.976 258.072 287.448ZM262.656 287.448C262.8 285.843 262.344 285.232 261.66 285.232C260.976 285.232 260.4 285.843 260.256 287.448C260.112 289.053 260.568 289.664 261.264 289.664C261.96 289.664 262.512 289.053 262.656 287.448Z" fill="#263238"/>
<path d="M177.84 161.107L173.784 165.228L177.072 169.781L177.84 161.107Z" fill="#263238"/>
<path d="M355.932 161.107L359.256 165.228L355.164 169.781L355.932 161.107Z" fill="#263238"/>
<path d="M302.688 169.781H229.884L230.64 161.107H303.444L302.688 169.781Z" fill="#263238"/>
<path d="M445.128 325.88H362.508L377.94 149.834H460.56L445.128 325.88Z" fill="#948E8E"/>
<path d="M445.128 325.88H362.508L377.94 149.834H460.56L445.128 325.88Z" fill="black"/>
<path d="M392.4 220.432H384.36C383.897 220.441 383.437 220.352 383.01 220.171C382.584 219.99 382.2 219.721 381.885 219.381C381.57 219.042 381.331 218.64 381.182 218.202C381.034 217.763 380.98 217.299 381.024 216.838L383.592 187.607C383.7 186.629 384.162 185.724 384.891 185.062C385.621 184.401 386.567 184.027 387.552 184.013H395.604C396.067 184.006 396.526 184.096 396.952 184.278C397.377 184.46 397.76 184.729 398.074 185.068C398.389 185.407 398.629 185.808 398.778 186.245C398.927 186.683 398.982 187.147 398.94 187.607L396.384 216.838C396.273 217.819 395.807 218.726 395.073 219.387C394.339 220.049 393.389 220.421 392.4 220.432Z" fill="white"/>
<path d="M392.4 205.014C392.28 206.32 391.2 207.565 388.8 207.565C387.777 207.587 386.768 207.326 385.884 206.811L386.82 205.181C387.43 205.601 388.155 205.823 388.896 205.816C389.628 205.816 390.096 205.529 390.18 205.014C390.264 204.499 389.904 204.271 389.076 204.271H388.164L388.284 202.905L389.784 201.42H386.748L386.904 199.742H392.448L392.328 201.108L390.588 202.809C390.853 202.832 391.112 202.907 391.347 203.031C391.583 203.154 391.791 203.324 391.96 203.529C392.129 203.735 392.255 203.972 392.331 204.227C392.406 204.482 392.43 204.75 392.4 205.014Z" fill="#263238"/>
<path d="M442.26 220.432H402.936C402.473 220.441 402.013 220.352 401.586 220.171C401.16 219.99 400.776 219.721 400.461 219.381C400.146 219.042 399.907 218.64 399.758 218.202C399.61 217.763 399.556 217.299 399.6 216.838L402.156 187.607C402.269 186.629 402.735 185.725 403.465 185.064C404.196 184.403 405.142 184.029 406.128 184.013H445.464C445.926 184.006 446.385 184.096 446.81 184.278C447.235 184.46 447.617 184.729 447.931 185.068C448.244 185.407 448.483 185.809 448.631 186.246C448.778 186.684 448.832 187.147 448.788 187.607L446.232 216.838C446.119 217.816 445.653 218.719 444.923 219.381C444.192 220.042 443.246 220.415 442.26 220.432Z" fill="#948E8E"/>
<path d="M438.36 264.866H399.036C398.573 264.873 398.114 264.782 397.688 264.601C397.263 264.419 396.88 264.15 396.566 263.811C396.251 263.472 396.011 263.071 395.862 262.633C395.713 262.196 395.658 261.732 395.7 261.272L398.268 232.041C398.381 231.063 398.846 230.159 399.577 229.498C400.308 228.837 401.254 228.463 402.24 228.447H441.6C442.063 228.44 442.522 228.53 442.947 228.712C443.373 228.893 443.756 229.163 444.07 229.501C444.385 229.84 444.624 230.242 444.774 230.679C444.923 231.117 444.978 231.58 444.936 232.041L442.368 261.272C442.254 262.256 441.783 263.164 441.045 263.826C440.307 264.488 439.352 264.858 438.36 264.866Z" fill="#263238"/>
<path d="M434.472 309.312H395.136C394.674 309.319 394.215 309.228 393.79 309.047C393.365 308.865 392.983 308.595 392.669 308.256C392.356 307.917 392.117 307.516 391.969 307.078C391.822 306.641 391.768 306.177 391.812 305.718L394.368 276.486C394.481 275.508 394.947 274.605 395.677 273.944C396.408 273.283 397.354 272.909 398.34 272.892H437.664C438.127 272.884 438.587 272.973 439.014 273.154C439.44 273.335 439.824 273.604 440.139 273.943C440.454 274.283 440.693 274.685 440.842 275.123C440.99 275.561 441.044 276.026 441 276.486L438.432 305.718C438.324 306.695 437.862 307.6 437.133 308.262C436.404 308.924 435.457 309.297 434.472 309.312Z" fill="#948E8E"/>
<path d="M388.524 264.866H380.472C380.01 264.873 379.551 264.783 379.126 264.601C378.701 264.419 378.319 264.15 378.005 263.81C377.692 263.471 377.453 263.07 377.306 262.632C377.158 262.195 377.104 261.731 377.148 261.272L379.704 232.041C379.817 231.063 380.283 230.159 381.013 229.498C381.744 228.837 382.69 228.463 383.676 228.447H391.728C392.19 228.439 392.649 228.53 393.074 228.712C393.499 228.893 393.881 229.163 394.195 229.502C394.508 229.841 394.747 230.243 394.895 230.68C395.042 231.117 395.096 231.581 395.052 232.041L392.496 261.272C392.383 262.25 391.918 263.153 391.187 263.814C390.456 264.475 389.51 264.849 388.524 264.866Z" fill="white"/>
<path d="M384.432 241.768L383.76 249.436H381.6L382.128 243.446H380.7L380.844 241.768H384.432Z" fill="#263238"/>
<path d="M391.032 247.04C390.924 248.345 389.832 249.591 387.432 249.591C386.409 249.614 385.399 249.353 384.516 248.837L385.44 247.207C386.054 247.619 386.776 247.84 387.516 247.842C388.248 247.842 388.716 247.555 388.8 247.04C388.884 246.524 388.536 246.297 387.696 246.297H386.784L386.904 244.931L388.404 243.446H385.38L385.524 241.768H391.08L390.96 243.134L389.22 244.835C389.486 244.856 389.745 244.93 389.982 245.053C390.218 245.176 390.427 245.346 390.596 245.552C390.766 245.758 390.892 245.996 390.966 246.251C391.041 246.507 391.064 246.775 391.032 247.04Z" fill="#263238"/>
<path d="M384.624 309.312H376.584C376.121 309.32 375.661 309.231 375.234 309.05C374.808 308.869 374.424 308.6 374.109 308.261C373.794 307.921 373.555 307.519 373.406 307.081C373.258 306.643 373.204 306.178 373.248 305.718L375.804 276.486C375.917 275.508 376.383 274.605 377.113 273.944C377.844 273.283 378.79 272.909 379.776 272.892H387.828C388.291 272.885 388.75 272.976 389.176 273.157C389.601 273.339 389.984 273.608 390.298 273.947C390.613 274.286 390.853 274.687 391.002 275.125C391.151 275.562 391.206 276.026 391.164 276.486L388.596 305.718C388.483 306.696 388.018 307.599 387.287 308.26C386.556 308.921 385.61 309.295 384.624 309.312Z" fill="white"/>
<path d="M443.34 170.391H393.684L394.5 161.107H444.144L443.34 170.391Z" fill="white"/>
<path d="M271.2 137.506C271.328 136.157 271.969 134.908 272.991 134.017C274.014 133.126 275.34 132.659 276.696 132.714C277.428 132.67 278.159 132.805 278.826 133.108C279.494 133.411 280.077 133.872 280.524 134.452L278.724 135.961C278.494 135.624 278.184 135.349 277.822 135.161C277.46 134.973 277.056 134.877 276.648 134.883C275.927 134.867 275.229 135.134 274.704 135.627C274.178 136.12 273.868 136.799 273.84 137.518C273.78 137.852 273.796 138.195 273.887 138.522C273.979 138.848 274.144 139.15 274.369 139.404C274.594 139.657 274.874 139.857 275.188 139.987C275.502 140.117 275.841 140.174 276.18 140.154C276.617 140.148 277.046 140.048 277.44 139.859C277.834 139.671 278.182 139.4 278.46 139.064L279.984 140.573C279.462 141.142 278.822 141.592 278.11 141.892C277.398 142.191 276.629 142.334 275.856 142.31C275.217 142.367 274.573 142.28 273.972 142.056C273.37 141.832 272.827 141.477 272.38 141.017C271.934 140.557 271.597 140.002 271.392 139.395C271.188 138.788 271.122 138.142 271.2 137.506Z" fill="white"/>
<path d="M287.184 140.322H283.284L282.396 142.119H279.732L284.616 132.894H287.196L290.472 142.119H287.76L287.184 140.322ZM286.596 138.393L285.66 135.446L284.22 138.393H286.596Z" fill="white"/>
<path d="M292.02 132.894H294.636L294.012 140.082H298.416L298.236 142.155H291.216L292.02 132.894Z" fill="white"/>
<path d="M306.864 140.094L306.684 142.119H299.268L300.072 132.894H307.272L307.092 134.907H302.436L302.304 136.464H306.408L306.24 138.405H302.136L301.98 140.094H306.864Z" fill="white"/>
<path d="M317.736 132.894L316.932 142.119H314.772L311.172 137.195L310.74 142.119H308.184L308.988 132.894H311.148L314.748 137.806L315.18 132.894H317.736Z" fill="white"/>
<path d="M319.584 132.894H324C327.06 132.894 329.004 134.667 328.8 137.506C328.596 140.346 326.292 142.119 323.232 142.119H318.864L319.584 132.894ZM323.184 140.082C323.539 140.108 323.895 140.063 324.232 139.949C324.569 139.835 324.88 139.655 325.146 139.42C325.412 139.184 325.629 138.898 325.782 138.577C325.936 138.257 326.023 137.909 326.04 137.554C326.096 137.221 326.073 136.879 325.975 136.556C325.876 136.232 325.704 135.936 325.471 135.69C325.239 135.444 324.953 135.255 324.635 135.138C324.317 135.021 323.977 134.979 323.64 135.015H321.996L321.552 140.082H323.184Z" fill="white"/>
<path d="M335.892 140.322H331.992L331.104 142.119H328.44L333.324 132.894H335.904L339.18 142.119H336.468L335.892 140.322ZM335.304 138.393L334.368 135.446L332.928 138.393H335.304Z" fill="white"/>
<path d="M344.172 139.663H342.756L342.54 142.059H339.924L340.728 132.834H344.952C347.472 132.834 348.948 134.128 348.756 136.249C348.716 136.877 348.501 137.482 348.137 137.996C347.772 138.51 347.272 138.913 346.692 139.16L348.432 142.059H345.6L344.172 139.663ZM344.616 134.943H343.2L342.96 137.65H344.4C345.492 137.65 346.068 137.147 346.14 136.308C346.212 135.47 345.696 134.943 344.616 134.943Z" fill="white"/>
<path d="M176.4 140.513H175.2C174.955 140.518 174.712 140.471 174.487 140.375C174.262 140.278 174.059 140.136 173.894 139.955C173.728 139.775 173.603 139.562 173.526 139.33C173.449 139.098 173.422 138.852 173.448 138.609L173.556 137.411C173.609 136.895 173.849 136.416 174.232 136.065C174.614 135.714 175.113 135.515 175.632 135.506H176.832C177.077 135.501 177.32 135.548 177.545 135.645C177.77 135.741 177.973 135.884 178.138 136.064C178.304 136.244 178.429 136.457 178.506 136.689C178.583 136.922 178.61 137.167 178.584 137.411L178.476 138.609C178.423 139.125 178.183 139.603 177.8 139.954C177.418 140.306 176.92 140.504 176.4 140.513Z" fill="white"/>
<path d="M183.96 140.513H182.76C182.516 140.518 182.273 140.471 182.048 140.375C181.824 140.278 181.622 140.135 181.457 139.955C181.293 139.775 181.168 139.561 181.093 139.329C181.017 139.097 180.993 138.851 181.02 138.609L181.128 137.411C181.181 136.894 181.421 136.416 181.804 136.065C182.186 135.714 182.685 135.515 183.204 135.506H184.404C184.648 135.501 184.891 135.548 185.116 135.644C185.341 135.741 185.542 135.884 185.707 136.064C185.872 136.245 185.996 136.458 186.071 136.69C186.147 136.922 186.171 137.168 186.144 137.411L186.048 138.609C185.992 139.126 185.75 139.605 185.365 139.955C184.981 140.306 184.481 140.505 183.96 140.513Z" fill="white"/>
<path d="M191.484 140.513H190.284C190.04 140.518 189.797 140.471 189.572 140.375C189.348 140.278 189.146 140.135 188.981 139.955C188.817 139.775 188.692 139.561 188.617 139.329C188.541 139.097 188.517 138.851 188.544 138.609L188.652 137.411C188.702 136.896 188.94 136.417 189.321 136.066C189.701 135.714 190.198 135.515 190.716 135.506H191.916C192.16 135.501 192.403 135.548 192.628 135.644C192.853 135.741 193.054 135.884 193.219 136.064C193.384 136.245 193.508 136.458 193.583 136.69C193.659 136.922 193.683 137.168 193.656 137.411L193.548 138.609C193.498 139.124 193.26 139.602 192.88 139.954C192.499 140.305 192.002 140.504 191.484 140.513Z" fill="white"/>
<path d="M381.504 294.408L381.348 296.122H375.348L375.468 294.768L378.576 292.084C379.236 291.509 379.356 291.162 379.392 290.886C379.392 290.383 379.128 290.096 378.468 290.096C378.186 290.095 377.908 290.161 377.657 290.291C377.406 290.42 377.19 290.608 377.028 290.838L375.504 289.94C375.877 289.417 376.376 288.996 376.955 288.715C377.533 288.435 378.173 288.304 378.816 288.335C380.58 288.335 381.72 289.245 381.6 290.671C381.533 291.156 381.362 291.621 381.099 292.034C380.836 292.448 380.487 292.8 380.076 293.067L378.516 294.408H381.504Z" fill="#263238"/>
<path d="M388.116 293.726C387.996 295.031 386.856 296.277 384.516 296.277C383.493 296.299 382.484 296.038 381.6 295.523L382.536 293.893C383.148 294.308 383.872 294.53 384.612 294.528C385.344 294.528 385.812 294.241 385.896 293.726C385.98 293.21 385.62 292.983 384.792 292.983H383.88L384 291.605L385.5 290.132H382.464L382.62 288.454H388.164L388.044 289.82L386.304 291.521C386.569 291.544 386.828 291.619 387.063 291.743C387.299 291.866 387.508 292.036 387.676 292.241C387.845 292.447 387.971 292.684 388.047 292.939C388.122 293.194 388.146 293.461 388.116 293.726Z" fill="#263238"/>
<path d="M440.364 198.832H407.94L408.048 197.634H440.472L440.364 198.832Z" fill="white"/>
<path d="M423.672 204.235H407.472L407.568 203.037H423.78L423.672 204.235Z" fill="white"/>
<path d="M432.576 287.664H400.152L400.26 286.466H432.684L432.576 287.664Z" fill="white"/>
<path d="M415.896 293.079H399.684L399.78 291.881H415.992L415.896 293.079Z" fill="white"/>
<path d="M436.5 242.954H404.076L404.172 241.756H436.596L436.5 242.954Z" fill="white"/>
<path d="M419.808 248.357H403.596L403.704 247.159H419.916L419.808 248.357Z" fill="white"/>
<path d="M440.676 190.147C441.384 188.445 440.928 187.211 442.608 187.211C444.288 187.211 443.436 188.409 444.036 190.147C444.348 190.997 443.22 190.841 442.296 190.841C441.372 190.841 440.304 191.021 440.676 190.147Z" fill="white"/>
<path d="M442.56 187.763C442.49 187.763 442.42 187.748 442.355 187.72C442.291 187.692 442.233 187.651 442.185 187.599C442.138 187.547 442.102 187.485 442.08 187.419C442.057 187.352 442.049 187.281 442.056 187.211C442.073 187.063 442.143 186.926 442.253 186.825C442.364 186.723 442.506 186.665 442.656 186.66C442.727 186.658 442.798 186.671 442.863 186.699C442.928 186.726 442.987 186.768 443.035 186.82C443.083 186.872 443.119 186.935 443.14 187.002C443.162 187.07 443.169 187.141 443.16 187.211C443.148 187.362 443.079 187.502 442.968 187.604C442.857 187.706 442.711 187.763 442.56 187.763ZM442.632 186.948C442.56 186.95 442.492 186.978 442.439 187.026C442.386 187.075 442.353 187.14 442.344 187.211C442.341 187.245 442.344 187.279 442.355 187.31C442.365 187.342 442.383 187.372 442.405 187.397C442.428 187.421 442.455 187.441 442.486 187.455C442.517 187.468 442.55 187.475 442.584 187.475C442.656 187.473 442.724 187.445 442.777 187.396C442.83 187.348 442.863 187.282 442.872 187.211C442.875 187.178 442.872 187.144 442.861 187.112C442.851 187.08 442.833 187.051 442.811 187.026C442.788 187.001 442.761 186.982 442.73 186.968C442.699 186.955 442.666 186.948 442.632 186.948Z" fill="white"/>
<path d="M436.8 234.808C437.508 233.107 437.052 231.885 438.732 231.885C440.412 231.885 439.56 233.083 440.16 234.808C440.472 235.659 439.344 235.515 438.42 235.515C437.496 235.515 436.392 235.659 436.8 234.808Z" fill="white"/>
<path d="M438.648 232.412C438.578 232.412 438.508 232.398 438.443 232.37C438.379 232.341 438.321 232.3 438.274 232.248C438.226 232.196 438.19 232.135 438.168 232.068C438.145 232.001 438.137 231.931 438.144 231.861C438.159 231.711 438.228 231.573 438.339 231.471C438.449 231.369 438.594 231.312 438.744 231.31C438.815 231.308 438.886 231.321 438.951 231.348C439.017 231.376 439.075 231.417 439.123 231.47C439.171 231.522 439.207 231.584 439.228 231.652C439.25 231.719 439.257 231.791 439.248 231.861C439.233 232.01 439.164 232.149 439.053 232.251C438.943 232.352 438.798 232.41 438.648 232.412ZM438.72 231.597C438.648 231.6 438.58 231.628 438.527 231.676C438.474 231.724 438.441 231.79 438.432 231.861C438.429 231.894 438.432 231.928 438.443 231.96C438.453 231.992 438.471 232.021 438.493 232.046C438.516 232.071 438.543 232.091 438.574 232.104C438.605 232.118 438.638 232.125 438.672 232.124C438.744 232.122 438.812 232.094 438.865 232.046C438.918 231.998 438.951 231.932 438.96 231.861C438.965 231.827 438.963 231.791 438.953 231.758C438.944 231.725 438.927 231.694 438.904 231.668C438.881 231.642 438.853 231.621 438.821 231.606C438.789 231.592 438.755 231.585 438.72 231.585V231.597Z" fill="white"/>
<path d="M432.852 279.41C433.56 277.708 433.104 276.474 434.784 276.474C436.464 276.474 435.612 277.672 436.212 279.41C436.524 280.248 435.396 280.104 434.472 280.104C433.548 280.104 432.48 280.332 432.852 279.41Z" fill="white"/>
<path d="M434.736 277.026C434.666 277.026 434.596 277.011 434.531 276.983C434.467 276.955 434.409 276.914 434.362 276.862C434.314 276.81 434.278 276.748 434.256 276.682C434.233 276.615 434.225 276.544 434.232 276.474C434.249 276.326 434.319 276.189 434.429 276.088C434.54 275.986 434.682 275.928 434.832 275.923C434.903 275.921 434.974 275.934 435.039 275.962C435.105 275.989 435.163 276.031 435.211 276.083C435.259 276.135 435.295 276.198 435.316 276.265C435.338 276.333 435.345 276.404 435.336 276.474C435.321 276.624 435.252 276.763 435.141 276.864C435.031 276.966 434.886 277.023 434.736 277.026ZM434.808 276.211C434.736 276.213 434.668 276.241 434.615 276.289C434.562 276.338 434.529 276.403 434.52 276.474C434.517 276.508 434.52 276.542 434.531 276.573C434.541 276.605 434.559 276.635 434.581 276.66C434.604 276.684 434.631 276.704 434.662 276.718C434.693 276.731 434.726 276.738 434.76 276.738C434.832 276.738 434.902 276.711 434.956 276.662C435.009 276.614 435.042 276.546 435.048 276.474C435.051 276.441 435.048 276.407 435.037 276.375C435.027 276.343 435.009 276.314 434.987 276.289C434.964 276.264 434.937 276.245 434.906 276.231C434.875 276.218 434.842 276.211 434.808 276.211Z" fill="white"/>
<path opacity="0.2" d="M188.208 109.15L125.988 341.478H146.928L208.464 109.15H188.208Z" fill="white"/>
<path opacity="0.2" d="M220.512 109.15L158.292 341.478H199.812L261.348 109.15H220.512Z" fill="white"/>
<path opacity="0.4" d="M148.517 222.9C149.645 218.129 146.685 213.348 141.906 212.221C137.126 211.095 132.337 214.05 131.209 218.822C130.081 223.594 133.041 228.375 137.82 229.501C142.6 230.627 147.389 227.672 148.517 222.9Z" fill="white"/>
<path opacity="0.4" d="M467.316 220.875C467.316 221.755 467.055 222.615 466.565 223.346C466.075 224.077 465.379 224.647 464.565 224.983C463.751 225.319 462.855 225.406 461.991 225.234C461.127 225.061 460.334 224.637 459.712 224.014C459.09 223.391 458.667 222.598 458.496 221.735C458.326 220.872 458.416 219.978 458.754 219.166C459.093 218.354 459.666 217.661 460.399 217.174C461.133 216.687 461.995 216.428 462.876 216.431C463.46 216.431 464.039 216.546 464.578 216.769C465.117 216.993 465.607 217.32 466.02 217.733C466.432 218.146 466.759 218.636 466.982 219.175C467.204 219.714 467.318 220.292 467.316 220.875Z" fill="white"/>
<path d="M405.24 142.203C405.196 142.626 404.999 143.02 404.685 143.309C404.371 143.598 403.963 143.763 403.536 143.772C403.335 143.775 403.136 143.735 402.952 143.655C402.767 143.575 402.602 143.457 402.467 143.309C402.332 143.161 402.23 142.985 402.168 142.794C402.106 142.604 402.086 142.402 402.108 142.203C402.152 141.78 402.35 141.388 402.664 141.101C402.978 140.814 403.386 140.652 403.812 140.645C404.012 140.64 404.211 140.679 404.396 140.757C404.58 140.836 404.745 140.952 404.88 141.1C405.016 141.248 405.118 141.422 405.18 141.612C405.242 141.803 405.262 142.004 405.24 142.203Z" fill="white"/>
<path d="M406.968 137.554L406.212 138.836C405.345 138.462 404.408 138.278 403.464 138.297C402.609 138.295 401.765 138.483 400.992 138.848L400.38 137.566C401.412 137.088 402.536 136.84 403.674 136.84C404.812 136.84 405.936 137.088 406.968 137.566V137.554Z" fill="white"/>
<path d="M409.092 133.936L408.324 135.23C406.888 134.557 405.314 134.228 403.728 134.272C402.193 134.273 400.678 134.625 399.3 135.302L398.7 134.032C400.303 133.237 402.07 132.827 403.86 132.834C405.667 132.779 407.461 133.157 409.092 133.936Z" fill="white"/>
<path d="M411.228 130.259L410.46 131.588C408.451 130.607 406.227 130.145 403.992 130.247C401.767 130.226 399.568 130.727 397.572 131.708L396.984 130.51C399.203 129.41 401.647 128.84 404.124 128.845C406.572 128.726 409.012 129.212 411.228 130.259Z" fill="white"/>
<path d="M432.432 144.024C431.444 144.039 430.465 143.845 429.558 143.455C428.651 143.064 427.837 142.485 427.171 141.757C426.505 141.028 426.002 140.167 425.694 139.23C425.387 138.293 425.283 137.301 425.388 136.32C425.605 134.234 426.578 132.299 428.126 130.88C429.673 129.461 431.687 128.656 433.788 128.617V128.953C431.781 128.989 429.856 129.759 428.379 131.117C426.902 132.475 425.974 134.326 425.772 136.32C425.67 137.258 425.769 138.207 426.062 139.103C426.355 140 426.836 140.824 427.473 141.521C428.109 142.218 428.887 142.771 429.755 143.145C430.622 143.519 431.559 143.704 432.504 143.688L432.432 144.024Z" fill="white"/>
<path d="M432.708 144.323H432.408C431.38 144.347 430.358 144.15 429.412 143.747C428.467 143.343 427.618 142.742 426.925 141.984C426.231 141.226 425.708 140.328 425.391 139.351C425.075 138.374 424.971 137.341 425.088 136.32C425.316 134.154 426.328 132.146 427.934 130.672C429.541 129.199 431.631 128.361 433.812 128.318H434.112L434.028 129.252H433.728C431.802 129.289 429.957 130.028 428.54 131.33C427.123 132.633 426.232 134.408 426.036 136.32C425.937 137.22 426.031 138.13 426.312 138.991C426.593 139.851 427.054 140.642 427.665 141.311C428.275 141.979 429.022 142.51 429.854 142.869C430.686 143.227 431.586 143.404 432.492 143.389H432.792L432.708 144.323Z" fill="white"/>
<path d="M432.432 144.024V143.688C434.44 143.651 436.364 142.881 437.841 141.524C439.318 140.166 440.246 138.315 440.448 136.32C440.55 135.383 440.452 134.434 440.158 133.537C439.865 132.641 439.384 131.817 438.748 131.12C438.111 130.423 437.333 129.869 436.465 129.496C435.598 129.122 434.661 128.937 433.716 128.953V128.617C434.704 128.599 435.684 128.792 436.592 129.182C437.499 129.572 438.313 130.151 438.978 130.88C439.644 131.609 440.146 132.472 440.451 133.41C440.756 134.348 440.857 135.34 440.748 136.32C440.536 138.394 439.575 140.319 438.044 141.737C436.514 143.155 434.519 143.967 432.432 144.024Z" fill="white"/>
<path d="M432.408 144.323H432.108L432.192 143.389H432.492C434.418 143.352 436.263 142.612 437.68 141.31C439.097 140.008 439.988 138.233 440.184 136.32C440.283 135.421 440.189 134.511 439.908 133.65C439.627 132.79 439.166 131.999 438.555 131.33C437.945 130.662 437.198 130.13 436.366 129.772C435.534 129.414 434.634 129.237 433.728 129.252H433.428L433.512 128.318H433.812C434.839 128.296 435.859 128.493 436.804 128.898C437.748 129.302 438.595 129.903 439.287 130.661C439.98 131.419 440.501 132.317 440.817 133.293C441.134 134.269 441.237 135.301 441.12 136.32C440.898 138.486 439.889 140.496 438.284 141.971C436.679 143.445 434.589 144.282 432.408 144.323Z" fill="white"/>
<path d="M437.052 136.32H436.716C436.932 133.829 435.96 130.486 433.668 128.929L433.872 128.641C436.26 130.271 437.28 133.733 437.052 136.32Z" fill="white"/>
<path d="M437.328 136.572H436.392V136.272C436.596 133.876 435.66 130.63 433.452 129.084L433.224 128.929L433.8 128.138L434.028 128.294C436.5 129.971 437.628 133.553 437.328 136.225V136.572Z" fill="white"/>
<path d="M432.552 143.76L432.384 143.472C433.599 142.626 434.617 141.527 435.367 140.251C436.116 138.976 436.581 137.553 436.728 136.081H437.076C436.919 137.61 436.433 139.088 435.653 140.413C434.872 141.738 433.814 142.88 432.552 143.76Z" fill="white"/>
<path d="M432.42 144.179L431.988 143.389L432.252 143.233C433.428 142.409 434.411 141.339 435.132 140.098C435.854 138.856 436.296 137.474 436.428 136.045V135.745H437.364V136.045C437.2 137.626 436.696 139.154 435.887 140.522C435.077 141.891 433.98 143.069 432.672 143.976L432.42 144.179Z" fill="white"/>
<path d="M429.504 136.32H429.168C429.323 134.79 429.807 133.312 430.588 131.987C431.369 130.661 432.428 129.52 433.692 128.641L433.848 128.929C432.635 129.777 431.619 130.877 430.87 132.152C430.12 133.428 429.654 134.849 429.504 136.32Z" fill="white"/>
<path d="M429.78 136.572H428.844V136.272C429.005 134.692 429.507 133.165 430.315 131.796C431.123 130.427 432.217 129.249 433.524 128.342L433.788 128.186L434.232 128.977L433.968 129.132C432.79 129.957 431.806 131.026 431.083 132.267C430.36 133.508 429.915 134.891 429.78 136.32V136.572Z" fill="white"/>
<path d="M432.36 143.76C429.96 142.131 428.964 138.668 429.18 136.081H429.528C429.312 138.573 430.284 141.915 432.576 143.472L432.36 143.76Z" fill="white"/>
<path d="M432.42 144.179L432.18 144.024C429.708 142.346 428.652 138.764 428.88 136.093V135.793H429.816V136.093C429.6 138.489 430.536 141.735 432.744 143.281L432.984 143.437L432.42 144.179Z" fill="white"/>
<path d="M432.612 143.856H432.276L433.596 128.785H433.944L432.612 143.856Z" fill="white"/>
<path d="M432.888 144.155H431.952L433.332 128.485H434.268L432.888 144.155Z" fill="white"/>
<path d="M439.836 132.475H427.056L427.092 132.139H439.86L439.836 132.475Z" fill="white"/>
<path d="M440.112 132.774H426.732L426.816 131.84H440.184L440.112 132.774Z" fill="white"/>
<path d="M440.628 136.62H425.544L425.568 136.284H440.652L440.628 136.62Z" fill="white"/>
<path d="M440.904 136.919H425.208L425.292 135.985H440.988L440.904 136.919Z" fill="white"/>
<path d="M438.936 140.753H426.504L426.528 140.418H438.972L438.936 140.753Z" fill="white"/>
<path d="M439.212 141.052H426.168L426.252 140.118H439.296L439.212 141.052Z" fill="white"/>
<path d="M297.048 492.114L305.58 485.046L284.052 464.644L274.86 472.479L297.048 492.114Z" fill="#CB7A63"/>
<path d="M312.516 482.315C311.541 482.021 310.494 482.072 309.552 482.459C308.976 482.626 308.352 482.818 307.848 483.022C307.344 483.225 307.044 483.321 306.732 483.453L305.772 483.872C305.72 483.891 305.675 483.926 305.643 483.97C305.611 484.015 305.593 484.069 305.592 484.124C305.578 484.163 305.578 484.205 305.592 484.244C305.635 484.307 305.699 484.353 305.772 484.375C306.986 484.697 308.227 484.906 309.48 484.998C310.091 485.081 310.712 485.036 311.304 484.867H311.388C311.726 484.758 312.052 484.613 312.36 484.435C312.555 484.276 312.709 484.072 312.807 483.84C312.905 483.608 312.945 483.356 312.924 483.105C312.929 482.95 312.895 482.795 312.823 482.657C312.752 482.519 312.646 482.401 312.516 482.315ZM312.396 483.094C312.422 483.263 312.402 483.436 312.336 483.595C312.271 483.753 312.163 483.891 312.024 483.992C311.738 484.202 311.404 484.338 311.052 484.387C310.569 484.475 310.077 484.499 309.588 484.459C308.826 484.421 308.068 484.329 307.32 484.184L306.756 484.064C307.772 483.58 308.838 483.21 309.936 482.962C310.52 482.82 311.114 482.72 311.712 482.662C311.893 482.657 312.072 482.703 312.228 482.794C312.279 482.826 312.321 482.87 312.35 482.922C312.379 482.975 312.395 483.034 312.396 483.094Z" fill="#948E8E"/>
<path d="M308.592 477.822C308.318 477.866 308.055 477.967 307.822 478.117C307.588 478.268 307.389 478.465 307.236 478.697C307.14 478.84 307.059 478.992 306.996 479.152C306.528 480.537 306.436 482.021 306.732 483.453C306.732 483.453 306.732 483.513 306.732 483.513C306.739 483.562 306.759 483.608 306.791 483.647C306.823 483.685 306.865 483.713 306.912 483.728C306.938 483.74 306.967 483.747 306.996 483.747C307.025 483.747 307.054 483.74 307.08 483.728C307.122 483.723 307.161 483.701 307.188 483.669C307.419 483.464 307.635 483.244 307.836 483.01C308.216 482.56 308.557 482.079 308.856 481.572C309.6 480.374 310.128 479.008 309.804 478.302C309.684 478.002 309.372 477.691 308.592 477.822ZM309.312 478.529C309.516 478.996 309.108 480.063 308.508 481.117C308.143 481.761 307.708 482.364 307.212 482.914C307.046 481.831 307.103 480.727 307.38 479.667C307.45 479.437 307.555 479.219 307.692 479.02C307.887 478.726 308.18 478.509 308.52 478.409H308.688C309.192 478.29 309.288 478.481 309.312 478.529Z" fill="#948E8E"/>
<path d="M304.476 484.531L293.748 489.982C293.543 490.079 293.38 490.245 293.287 490.452C293.195 490.658 293.179 490.891 293.244 491.108L296.412 501.135C296.488 501.373 296.611 501.594 296.773 501.783C296.936 501.973 297.135 502.129 297.359 502.24C297.582 502.352 297.826 502.418 298.076 502.434C298.326 502.45 298.576 502.416 298.812 502.333L299.004 502.262C317.376 495.804 323.004 491.24 324.936 490.198C330.408 487.215 327.336 483.345 325.284 483.824C316.116 486.017 313.044 485.454 309.072 484.435C307.554 484.103 305.979 484.136 304.476 484.531Z" fill="#263238"/>
<path opacity="0.2" d="M284.052 464.656L294.96 474.3L285.768 482.135L274.86 472.491L284.052 464.656Z" fill="black"/>
<path d="M280.668 482.063L294.372 469.436L291.36 464.141L275.496 477.738L280.668 482.063Z" fill="#948E8E"/>
<path d="M289.2 466.022L287.364 467.603L284.628 469.999L282.984 471.401L278.184 475.498L277.26 476.289C277.26 476.289 257.724 465.303 246.852 455.923C239.4 449.49 238.728 447.106 237.936 447.705C227.436 455.683 196.356 483.261 178.728 497.613C178.164 497.685 177.588 497.733 177.012 497.781C167.604 498.464 160.212 497.446 154.452 495.253C154.392 487.622 160.92 469.808 161.46 468.083C161.46 468.083 187.452 442.278 229.584 420.45C229.992 420.246 230.424 420.067 230.856 419.887C231.288 419.707 231.948 419.42 232.5 419.228C234.562 418.406 236.741 417.913 238.956 417.767C240.823 417.692 242.686 417.985 244.44 418.629C245.443 418.982 246.418 419.41 247.356 419.911C248.18 420.34 248.981 420.812 249.756 421.325C251.052 422.151 252.312 423.074 253.512 423.984C256.2 426.057 276.552 452.221 287.496 464.297C288.132 464.824 288.672 465.459 289.2 466.022Z" fill="#948E8E"/>
<path d="M289.2 466.022L287.364 467.603L284.628 469.999L282.984 471.401L278.184 475.498L277.26 476.289C277.26 476.289 257.724 465.303 246.852 455.923C239.4 449.49 238.728 447.106 237.936 447.705C227.436 455.683 196.356 483.261 178.728 497.613C178.164 497.685 177.588 497.733 177.012 497.781C167.604 498.464 160.212 497.446 154.452 495.253C154.392 487.622 160.92 469.808 161.46 468.083C161.46 468.083 187.452 442.278 229.584 420.45C229.992 420.246 230.424 420.067 230.856 419.887C231.288 419.707 231.948 419.42 232.5 419.228C234.562 418.406 236.741 417.913 238.956 417.767C240.823 417.692 242.686 417.985 244.44 418.629C245.443 418.982 246.418 419.41 247.356 419.911C248.18 420.34 248.981 420.812 249.756 421.325C251.052 422.151 252.312 423.074 253.512 423.984C256.2 426.057 276.552 452.221 287.496 464.297C288.132 464.824 288.672 465.459 289.2 466.022Z" fill="black"/>
<path d="M301.968 497.481L311.22 488.473L293.316 466.022L282.132 472.611L301.968 497.481Z" fill="#CB7A63"/>
<path d="M320.664 485.705C319.632 485.346 317.532 486.496 315.864 487.514L314.796 488.221L314.628 488.341L313.908 488.856C313.854 488.886 313.812 488.933 313.789 488.989C313.765 489.045 313.76 489.108 313.776 489.167C313.791 489.227 313.825 489.28 313.873 489.318C313.92 489.357 313.979 489.38 314.04 489.383C315.145 489.425 316.252 489.389 317.352 489.275L318.072 489.191C318.87 489.134 319.639 488.869 320.304 488.425C320.537 488.27 320.758 488.098 320.964 487.909C321.138 487.701 321.256 487.453 321.309 487.187C321.361 486.921 321.346 486.646 321.264 486.388C321.222 486.236 321.146 486.096 321.042 485.978C320.939 485.86 320.809 485.766 320.664 485.705ZM320.664 486.556C320.726 486.729 320.741 486.916 320.707 487.097C320.673 487.278 320.592 487.446 320.472 487.586C319.977 488.076 319.338 488.394 318.648 488.496C317.836 488.686 317.009 488.798 316.176 488.832C315.792 488.832 315.384 488.832 314.976 488.832L315.372 488.52L315.66 488.317C316.947 487.415 318.363 486.712 319.86 486.232C320.044 486.179 320.24 486.179 320.424 486.232C320.504 486.243 320.577 486.281 320.632 486.34C320.687 486.399 320.719 486.476 320.724 486.556H320.664Z" fill="#948E8E"/>
<path d="M315.528 481.895C315.257 482.003 315.01 482.164 314.804 482.37C314.597 482.576 314.435 482.823 314.328 483.093C313.572 484.938 314.688 487.766 314.88 488.209C314.901 488.257 314.934 488.299 314.976 488.331C315.018 488.362 315.068 488.382 315.12 488.389C315.179 488.406 315.241 488.406 315.3 488.389C315.321 488.386 315.341 488.378 315.358 488.366C315.374 488.353 315.388 488.336 315.396 488.317C315.589 488.062 315.758 487.789 315.9 487.502C316.788 485.837 317.616 483.058 316.896 482.099C316.704 481.836 316.308 481.596 315.528 481.895ZM315.228 487.538C314.904 486.592 314.328 484.591 314.856 483.345C314.99 482.989 315.25 482.695 315.588 482.518L315.744 482.435C316.26 482.231 316.392 482.435 316.44 482.435C316.956 483.177 316.164 486.005 315.228 487.586V487.538Z" fill="#948E8E"/>
<path opacity="0.2" d="M292.38 464.644L300.804 475.414L289.404 481.752L280.848 471.269L292.38 464.644Z" fill="black"/>
<path d="M299.448 469.46L297.108 470.778L293.088 473.042L289.488 475.055L285.78 477.139L284.4 478.002L283.512 477.355L282.756 476.804C281.868 476.145 280.644 475.223 279.156 474.097C271.704 468.214 258.444 456.666 254.496 446.159C251.94 449.202 248.964 453.084 245.388 457.217C217.572 489.455 187.86 512.181 147.06 502.393C129.336 498.14 130.008 473.641 130.008 473.641C130.008 464.381 136.884 454.857 136.884 454.857L191.16 459.062C198.672 449.957 213.72 435.701 229.116 426.716C229.476 426.488 229.848 426.272 230.22 426.081C230.592 425.889 231.144 425.554 231.6 425.302C236.241 422.679 241.202 420.665 246.36 419.312C247.416 419.06 248.46 418.833 249.48 418.689C250.538 418.528 251.603 418.424 252.672 418.378C259.968 418.042 266.304 420.774 270.6 428.021L298.644 468.37L299.448 469.46Z" fill="#948E8E"/>
<path opacity="0.5" d="M299.448 469.46L297.108 470.778L293.088 473.042L289.488 475.055L285.78 477.139L284.4 478.002L283.512 477.355L282.756 476.804C281.868 476.145 280.644 475.223 279.156 474.097C271.704 468.214 258.444 456.666 254.496 446.159C251.94 449.202 248.964 453.084 245.388 457.217C217.572 489.455 187.86 512.181 147.06 502.393C129.336 498.14 130.008 473.641 130.008 473.641C130.008 464.381 136.884 454.857 136.884 454.857L191.16 459.062C198.672 449.957 213.72 435.701 229.116 426.716C229.476 426.488 229.848 426.272 230.22 426.081C230.592 425.889 231.144 425.554 231.6 425.302C236.241 422.679 241.202 420.665 246.36 419.312C247.416 419.06 248.46 418.833 249.48 418.689C250.538 418.528 251.603 418.424 252.672 418.378C259.968 418.042 266.304 420.774 270.6 428.021L298.644 468.37L299.448 469.46Z" fill="black"/>
<path d="M282.096 480.518L300.024 471.569L298.488 465.207L278.052 474.516L282.096 480.518Z" fill="#948E8E"/>
<path d="M310.5 487.502L298.14 491.24C297.906 491.306 297.702 491.453 297.566 491.655C297.43 491.857 297.37 492.1 297.396 492.342L298.896 503.531C298.987 504.054 299.279 504.52 299.709 504.831C300.14 505.142 300.674 505.273 301.2 505.197H301.416C322.056 501.758 328.872 498.009 331.092 497.218C337.44 495.074 334.896 490.413 332.652 490.545C322.536 491.168 319.392 490.006 315.384 488.149C313.834 487.536 312.156 487.314 310.5 487.502Z" fill="#263238"/>
<path d="M248.472 429.004H210.072C209.82 429.009 209.569 428.96 209.337 428.86C209.105 428.761 208.897 428.614 208.727 428.428C208.557 428.242 208.428 428.022 208.35 427.782C208.271 427.543 208.245 427.29 208.272 427.039L210.408 402.528C210.461 401.996 210.708 401.502 211.101 401.14C211.495 400.778 212.009 400.572 212.544 400.563H250.944C251.196 400.558 251.447 400.607 251.679 400.707C251.911 400.806 252.119 400.953 252.289 401.139C252.459 401.325 252.588 401.545 252.666 401.785C252.745 402.024 252.771 402.278 252.744 402.528L250.596 427.051C250.538 427.578 250.291 428.066 249.901 428.425C249.51 428.784 249.003 428.99 248.472 429.004Z" fill="#263238"/>
<path opacity="0.9" d="M248.484 427.075H211.656L213.828 402.396H250.644L248.484 427.075Z" fill="white"/>
<path opacity="0.4" d="M212.196 413.693C212.196 413.909 212.132 414.121 212.011 414.3C211.891 414.48 211.719 414.62 211.519 414.702C211.319 414.784 211.099 414.805 210.886 414.762C210.674 414.719 210.48 414.614 210.328 414.46C210.175 414.306 210.072 414.111 210.032 413.899C209.991 413.686 210.014 413.467 210.099 413.268C210.183 413.069 210.325 412.899 210.506 412.781C210.687 412.663 210.899 412.601 211.116 412.603C211.259 412.603 211.4 412.631 211.532 412.686C211.664 412.741 211.783 412.822 211.884 412.923C211.984 413.025 212.064 413.145 212.117 413.277C212.171 413.409 212.198 413.551 212.196 413.693Z" fill="black"/>
<path opacity="0.4" d="M251.28 413.142C251.28 413.249 251.248 413.353 251.189 413.442C251.13 413.53 251.045 413.6 250.947 413.64C250.848 413.681 250.739 413.692 250.635 413.671C250.53 413.65 250.434 413.599 250.358 413.523C250.283 413.448 250.231 413.352 250.21 413.247C250.189 413.143 250.2 413.034 250.241 412.936C250.282 412.837 250.351 412.753 250.44 412.694C250.529 412.635 250.633 412.603 250.74 412.603C250.883 412.603 251.021 412.66 251.122 412.761C251.223 412.862 251.28 412.999 251.28 413.142Z" fill="black"/>
<path d="M157.848 358.202C159.216 365.701 157.224 375.753 151.932 380.676C157.932 392.057 166.896 403.079 175.308 412.783C187.212 393.711 177 381.311 177 381.311C168.66 379.215 168.912 375.837 170.436 370.062L157.848 358.202Z" fill="#CB7A63"/>
<path d="M152.328 377.43C153.201 375.504 154.697 373.926 156.576 372.949C158.4 371.883 175.776 373.884 180.036 375.92C182.559 377.085 184.569 379.13 185.688 381.671L152.328 377.43Z" fill="#948E8E"/>
<path d="M201.276 351.972L209.004 355.566C209.634 357.583 209.854 359.705 209.652 361.808C209.208 364.444 208.02 365.318 203.652 363.497C199.764 358.585 201.276 351.972 201.276 351.972Z" fill="#CB7A63"/>
<path d="M206.4 347.097L207.264 348.941L208.8 349.816C209.197 350.06 209.507 350.423 209.686 350.853C209.865 351.283 209.903 351.759 209.796 352.212L208.992 355.518L201.276 351.924L202.74 349.013C204.084 346.965 205.14 346.378 206.268 346.917L206.4 347.097Z" fill="#CB7A63"/>
<path d="M198.204 395.244C202.632 385.552 204.492 381.012 209.316 363.078L202.908 362.359C196.488 379.502 189.12 386.774 189.12 386.774C189.12 386.774 152.976 380.7 148.488 382.821C141.216 386.247 145.104 393.735 149.688 395.628C154.272 397.52 180.156 401.773 192.132 400.3C193.493 400.047 194.767 399.45 195.83 398.564C196.893 397.679 197.711 396.536 198.204 395.244Z" fill="#CB7A63"/>
<path d="M226.044 354.919L226.02 354.943L226.008 354.931L226.044 354.919Z" fill="black"/>
<path d="M198.744 395.412C206.016 418.881 181.812 422.259 187.944 460.008L136.932 454.797C139.752 435.341 146.16 440.421 141.66 402.576C141.276 399.377 141.12 390.296 145.464 382.605C147.138 379.593 149.805 377.252 153.012 375.98C157.02 374.435 173.412 378.101 180.852 379.574C189.132 379.443 197.604 392.453 198.744 395.412Z" fill="#948E8E"/>
<path d="M188.052 350.283C187.572 351.146 187.668 352.032 188.208 352.332C188.748 352.631 189.564 352.212 190.032 351.373C190.5 350.535 190.416 349.624 189.876 349.325C189.336 349.025 188.508 349.457 188.052 350.283Z" fill="#263238"/>
<path d="M189.6 349.241L191.916 349.768C191.916 349.768 190.032 350.762 189.6 349.241Z" fill="#263238"/>
<path d="M188.196 352.044C188.64 354.323 189.399 356.528 190.452 358.597C189.911 358.848 189.321 358.978 188.724 358.978C188.127 358.978 187.537 358.848 186.996 358.597L188.196 352.044Z" fill="#A02724"/>
<path d="M191.7 344.293C191.79 344.259 191.871 344.203 191.934 344.129C191.997 344.056 192.04 343.968 192.06 343.874C192.088 343.728 192.057 343.576 191.974 343.453C191.891 343.33 191.762 343.244 191.616 343.215C190.747 343.032 189.847 343.059 188.991 343.295C188.135 343.53 187.348 343.967 186.696 344.569C186.632 344.614 186.578 344.672 186.538 344.74C186.498 344.807 186.472 344.882 186.463 344.959C186.453 345.037 186.46 345.116 186.483 345.191C186.506 345.266 186.544 345.335 186.595 345.395C186.646 345.454 186.709 345.502 186.78 345.536C186.851 345.569 186.928 345.588 187.006 345.59C187.084 345.593 187.162 345.579 187.235 345.549C187.308 345.52 187.373 345.476 187.428 345.419L187.5 345.347C188.023 344.882 188.649 344.546 189.327 344.367C190.004 344.188 190.715 344.171 191.4 344.317C191.5 344.34 191.605 344.332 191.7 344.293Z" fill="#263238"/>
<path d="M157.344 341.921C155.964 353.53 155.124 358.418 159.864 365.366C166.992 375.813 181.608 374.95 186.42 364.012C190.764 354.129 192.3 336.806 181.872 330.193C179.58 328.72 176.948 327.857 174.227 327.687C171.506 327.516 168.787 328.044 166.328 329.22C163.869 330.395 161.753 332.18 160.18 334.403C158.607 336.626 157.631 339.215 157.344 341.921Z" fill="#CB7A63"/>
<path d="M186.708 363.317C185.845 362.525 185.211 361.515 184.872 360.394C184.861 360.333 184.873 360.269 184.906 360.216C184.939 360.163 184.991 360.124 185.052 360.107C185.112 360.095 185.175 360.105 185.228 360.136C185.281 360.167 185.321 360.216 185.34 360.275C185.644 361.239 186.179 362.115 186.9 362.826L186.708 363.317Z" fill="#263238"/>
<path d="M195.264 338.136C195.289 339.336 194.861 340.502 194.065 341.403C193.27 342.304 192.164 342.874 190.968 342.999C189.408 347.216 185.088 353.65 181.296 351.218C183.504 351.146 187.536 346.15 184.128 342.245C181.632 339.393 178.248 331.906 184.128 330.073C188.676 328.659 195.252 333.535 195.264 338.136Z" fill="#263238"/>
<path d="M185.076 333.403C183.432 326.611 173.628 321.316 166.632 321.531C159.636 321.747 153.204 325.568 148.08 330.325C145.416 332.792 142.932 335.668 141.984 339.178C141.036 342.688 141.984 346.905 145.056 348.882C133.896 359.867 142.2 364.324 143.856 363.569C144.096 366.324 142.212 367.954 139.68 369.763C137.424 371.368 136.86 373.273 136.08 375.92C135.3 378.568 136.08 381.91 138.48 383.108C138.308 382.698 138.224 382.257 138.234 381.812C138.244 381.368 138.348 380.93 138.538 380.528C138.728 380.126 139 379.769 139.338 379.478C139.675 379.188 140.07 378.972 140.496 378.844C139.9 380.224 139.736 381.752 140.025 383.228C140.313 384.703 141.042 386.057 142.114 387.113C143.187 388.168 144.554 388.875 146.036 389.142C147.518 389.409 149.046 389.222 150.42 388.607C149.316 388.332 147.768 387.253 147.588 386.127C150.757 387.482 154.116 388.339 157.548 388.667C160.992 388.799 164.664 387.685 166.788 384.977C166.92 383.013 169.584 381.048 171.588 381.12C172.577 381.185 173.507 381.614 174.196 382.325C174.886 383.035 175.286 383.976 175.32 384.965C177.504 384.486 178.404 382.078 178.524 379.862C178.571 378.68 178.211 377.517 177.504 376.567C177.102 376.096 176.609 375.709 176.054 375.432C175.5 375.154 174.895 374.99 174.276 374.95C173.211 374.64 172.311 373.926 171.768 372.961C171.561 372.419 171.503 371.832 171.598 371.259C171.692 370.687 171.938 370.15 172.308 369.703C180.984 357.339 176.892 349.648 177.468 348.139C178.044 346.629 180.828 348.57 180.828 348.57C183.348 345.395 186 337.357 185.076 333.403Z" fill="#263238"/>
<path d="M172.2 350.391C171.985 353.083 172.848 355.75 174.6 357.807C176.94 360.526 180.096 358.909 181.092 355.674C182.004 352.763 181.872 347.839 178.692 346.306C175.512 344.772 172.488 347.109 172.2 350.391Z" fill="#CB7A63"/>
<path d="M136.932 450.867L135.168 455.324C134.952 455.659 135.348 456.055 135.924 456.115L188.46 461.506C188.916 461.506 189.324 461.362 189.384 461.074L188.688 456.079C188.76 455.779 188.376 455.468 187.872 455.42L137.82 450.628C137.664 450.589 137.5 450.591 137.345 450.633C137.19 450.675 137.047 450.755 136.932 450.867Z" fill="#948E8E"/>
<path d="M182.94 461.374H181.548C181.272 461.374 181.056 461.23 181.08 461.062L181.812 455.072C181.812 454.905 182.076 454.761 182.352 454.761H183.744C184.02 454.761 184.236 454.905 184.212 455.084L183.48 461.074C183.456 461.23 183.216 461.374 182.94 461.374Z" fill="#263238"/>
<path d="M164.16 459.241H162.768C162.504 459.241 162.288 459.086 162.312 458.918L163.044 452.928C163.044 452.76 163.308 452.628 163.584 452.628H164.976C165.24 452.628 165.468 452.772 165.432 452.964L164.712 458.894C164.688 459.121 164.4 459.241 164.16 459.241Z" fill="#948E8E"/>
<path d="M164.16 459.241H162.768C162.504 459.241 162.288 459.086 162.312 458.918L163.044 452.928C163.044 452.76 163.308 452.628 163.584 452.628H164.976C165.24 452.628 165.468 452.772 165.432 452.964L164.712 458.894C164.688 459.121 164.4 459.241 164.16 459.241Z" fill="#263238"/>
<path opacity="0.2" d="M176.688 393.723C176.688 393.723 173.22 398.958 179.28 414.724L181.836 421.157C182.676 423.289 190.452 420.163 193.092 416.712C193.092 416.712 180.252 406.625 176.688 393.723Z" fill="black"/>
<path d="M236.76 425.29L246.216 419.623L246.144 428.261C246.144 428.261 238.944 434.167 235.752 429.459C235.752 429.483 234.684 426.177 236.76 425.29Z" fill="#CB7A63"/>
<path d="M252.9 422.391L252.504 425.53C252.447 426.004 252.239 426.447 251.911 426.794C251.582 427.142 251.151 427.374 250.68 427.458L246.108 428.261L246.18 419.623L250.776 419.911C251.067 419.92 251.353 419.987 251.619 420.107C251.884 420.227 252.122 420.399 252.321 420.611C252.519 420.824 252.674 421.074 252.775 421.346C252.877 421.619 252.923 421.909 252.912 422.199C252.914 422.263 252.91 422.327 252.9 422.391Z" fill="#CB7A63"/>
<path d="M193.26 430.849C196.452 436.551 201.312 441.631 207.528 443.655C214.848 446.051 231.696 436.551 239.352 430.549C239.352 427.602 238.716 426.811 235.872 426.033C235.872 426.033 227.724 430.549 213.252 432.023C208.572 432.502 206.136 427.482 203.028 420.234C201.48 416.64 195.48 394.933 193.428 391.554C190.188 386.127 178.728 388.272 181.596 400.695C182.832 405.954 190.656 426.189 193.26 430.849Z" fill="#CB7A63"/>
<path d="M194.832 387.553C201.744 395.699 203.928 408.853 203.928 408.853L184.272 417.647C184.272 417.647 173.304 397.281 176.52 391.051C179.04 386.259 182.94 383.36 187.548 383.66C188.962 383.784 190.337 384.194 191.589 384.863C192.841 385.532 193.944 386.447 194.832 387.553Z" fill="#948E8E"/>
<path d="M143.46 457.348L142.068 457.205C141.804 457.145 141.6 457.025 141.636 456.845L142.836 450.987C142.836 450.807 143.124 450.7 143.4 450.724L144.792 450.867C145.056 450.867 145.26 451.059 145.224 451.227L144.024 457.097C143.979 457.202 143.896 457.286 143.791 457.333C143.687 457.379 143.568 457.385 143.46 457.348Z" fill="#263238"/>
<path d="M137.881 449.99L137.765 451.182L187.822 456.029L187.938 454.837L137.881 449.99Z" fill="#263238"/>
</svg>
